<svg width="43" height="43" viewBox="0 0 43 43" fill="none" xmlns="http://www.w3.org/2000/svg">
<path d="M41.9774 13.9784L22.445 1.12733C21.7783 0.722435 21.0668 0.718728 20.394 1.12733L0.861625 13.9784C0.360795 14.3078 0.0507812 14.8963 0.0507812 15.4847V28.3356C0.0507812 28.9241 0.360795 29.5125 0.861709 29.842L20.3941 42.6949C21.0608 43.0997 21.7723 43.1035 22.4451 42.6949L41.9775 29.842C42.4783 29.5126 42.7884 28.9241 42.7884 28.3356V15.4847C42.7883 14.8963 42.4783 14.3078 41.9774 13.9784V13.9784ZM23.2559 6.02283L37.6369 15.4847L31.2215 19.7213L23.2559 14.4726V6.02283ZM19.5832 6.02283V14.4726L11.6175 19.7213L5.20215 15.4847L19.5832 6.02283ZM3.72354 18.874L8.32642 21.9102L3.72354 24.9464V18.874ZM19.5832 37.7975L5.20215 28.3357L11.6175 24.0991L19.5832 29.3478V37.7975ZM21.4195 26.1939L14.9325 21.9102L21.4195 17.6265L27.9065 21.9102L21.4195 26.1939ZM23.2559 37.7975V29.3478L31.2215 24.0991L37.6369 28.3357L23.2559 37.7975ZM39.1155 24.9464L34.5127 21.9102L39.1155 18.874V24.9464Z" fill="#EFEDDE"/>
</svg>
