<svg width="79" height="79" viewBox="0 0 79 79" fill="none" xmlns="http://www.w3.org/2000/svg">
<ellipse cx="39.3856" cy="39.4251" rx="39.4254" ry="39.3856" transform="rotate(-90 39.3856 39.4251)" fill="#1CA199"/>
<ellipse cx="39.6846" cy="39.72" rx="33.489" ry="33.46" transform="rotate(-90 39.6846 39.72)" fill="#141D1C"/>
<path d="M19 20L22.7315 61.3876L39.4751 66L56.2655 61.3708L60 20H19V20ZM52.2479 29.4821L51.0058 43.2697L51.0095 43.3441L51.0043 43.5153V43.5139L50.1219 53.1543L50.0246 54.0108L39.5 56.8867V56.8871L39.4918 56.8941L28.9854 54.002L28.274 46.0316H33.4261L33.7916 50.0844L39.5015 51.6133L39.5 51.6163V51.6155L45.231 50.065L45.8367 43.4651H33.8562L33.7534 42.3494L33.5192 39.7356L33.3964 38.3321H46.292L46.7611 33.1991H27.1198L27.017 32.0842L26.7832 29.4696L26.66 28.0661H52.3708L52.2479 29.4821V29.4821Z" fill="#D6D269"/>
</svg>
