<svg width="52" height="49" viewBox="0 0 52 49" fill="none" xmlns="http://www.w3.org/2000/svg">
<g filter="url(#filter0_i)">
<path d="M52 24.3281C52 10.9113 40.3082 0 26 0C11.6918 0 0 10.9113 0 24.3281V51H52V24.3281Z" fill="#1CA199"/>
</g>
<g filter="url(#filter1_d)">
<path d="M31.9241 21L29.3397 25.7665L25.5 32.6237L21.6603 25.7665L19.0021 21H8.3692H8L8.3692 21.669L21.2911 45H29.7089L43 21H31.9241ZM30.8165 39.899L30.3734 40.7352L29.9304 41.5714H27.9367L28.3797 40.7352L28.8228 39.899L38.9388 21.9199H40.9325L40.711 22.338L30.8165 39.899Z" fill="#121313"/>
<path d="M40.9323 21.9199H38.9386L28.8964 39.899L28.3796 40.7353L27.9365 41.5715H29.9302L30.3732 40.7353L30.8163 39.899L40.7108 22.4217L40.9323 21.9199Z" fill="#D7D369"/>
</g>
<defs>
<filter id="filter0_i" x="0" y="0" width="52" height="55" filterUnits="userSpaceOnUse" color-interpolation-filters="sRGB">
<feFlood flood-opacity="0" result="BackgroundImageFix"/>
<feBlend mode="normal" in="SourceGraphic" in2="BackgroundImageFix" result="shape"/>
<feColorMatrix in="SourceAlpha" type="matrix" values="0 0 0 0 0 0 0 0 0 0 0 0 0 0 0 0 0 0 127 0" result="hardAlpha"/>
<feOffset dy="4"/>
<feGaussianBlur stdDeviation="2"/>
<feComposite in2="hardAlpha" operator="arithmetic" k2="-1" k3="1"/>
<feColorMatrix type="matrix" values="0 0 0 0 0 0 0 0 0 0 0 0 0 0 0 0 0 0 0.35 0"/>
<feBlend mode="normal" in2="shape" result="effect1_innerShadow"/>
</filter>
<filter id="filter1_d" x="5" y="17" width="41" height="30" filterUnits="userSpaceOnUse" color-interpolation-filters="sRGB">
<feFlood flood-opacity="0" result="BackgroundImageFix"/>
<feColorMatrix in="SourceAlpha" type="matrix" values="0 0 0 0 0 0 0 0 0 0 0 0 0 0 0 0 0 0 127 0"/>
<feOffset dy="-1"/>
<feGaussianBlur stdDeviation="1.5"/>
<feColorMatrix type="matrix" values="0 0 0 0 0 0 0 0 0 0 0 0 0 0 0 0 0 0 0.5 0"/>
<feBlend mode="normal" in2="BackgroundImageFix" result="effect1_dropShadow"/>
<feBlend mode="normal" in="SourceGraphic" in2="effect1_dropShadow" result="shape"/>
</filter>
</defs>
</svg>
