<svg width="79" height="79" viewBox="0 0 79 79" fill="none" xmlns="http://www.w3.org/2000/svg">
<ellipse cx="39.3856" cy="39.4251" rx="39.4254" ry="39.3856" transform="rotate(-90 39.3856 39.4251)" fill="#1CA199"/>
<ellipse cx="39.6846" cy="39.72" rx="33.489" ry="33.46" transform="rotate(-90 39.6846 39.72)" fill="#141D1C"/>
<path d="M61.9996 50.3379C60.4356 50.7364 59.4684 50.3551 58.6006 49.0496C56.6525 46.1258 54.502 43.3361 52.4269 40.4949C52.1594 40.1273 51.8816 39.7665 51.5352 39.3096C49.0794 42.6284 46.627 45.7892 44.3256 49.077C43.5025 50.252 42.6381 50.7639 41.1016 50.3482L50.3347 37.9354L41.7395 26.725C43.2178 26.4364 44.2399 26.5841 45.1454 27.9102C47.145 30.8374 49.3503 33.6237 51.5489 36.5714C53.7611 33.634 55.9391 30.8442 57.997 27.9446C58.8236 26.7696 59.7119 26.323 61.197 26.7559C60.0721 28.2504 58.9711 29.7208 57.8632 31.1809C56.3678 33.1495 54.8998 35.1422 53.3495 37.0696C52.7973 37.7567 52.8865 38.2033 53.3804 38.8527C56.2478 42.6284 59.0808 46.4419 61.9996 50.3379Z" fill="#D6D269"/>
<path d="M19.0103 37.7289C19.2572 36.4886 19.4219 35.2243 19.7649 34.0081C21.8228 26.6456 30.2602 23.5845 36.0566 28.1469C39.4522 30.8233 40.2959 34.5956 40.1279 38.8489H20.9893C20.7012 46.4794 26.1855 51.0865 33.1756 48.7366C35.6279 47.912 37.0719 45.9881 37.7956 43.5831C38.1626 42.3772 38.7696 42.1883 39.9015 42.5318C39.3218 45.5414 38.0082 48.0563 35.2643 49.6298C31.1485 51.9866 25.2732 51.2239 22.1829 47.9498C20.3582 46.0259 19.5831 43.6312 19.2401 41.0442C19.1886 40.632 19.0823 40.2266 19 39.8177C19.0069 39.1214 19.0103 38.4251 19.0103 37.7289ZM21.0236 37.217H38.3203C38.2071 31.6994 34.7773 27.7793 30.0887 27.745C24.9439 27.7037 21.2466 31.531 21.0236 37.217Z" fill="#D6D269"/>
</svg>
