<svg width="79" height="79" viewBox="0 0 79 79" fill="none" xmlns="http://www.w3.org/2000/svg">
<ellipse cx="39.3856" cy="39.4251" rx="39.4254" ry="39.3856" transform="rotate(-90 39.3856 39.4251)" fill="#1CA199"/>
<ellipse cx="39.6846" cy="39.72" rx="33.489" ry="33.46" transform="rotate(-90 39.6846 39.72)" fill="#141D1C"/>
<path fill-rule="evenodd" clip-rule="evenodd" d="M39.9998 15C26.1946 15 15 26.246 15 40.1203C15 51.2195 22.1632 60.6352 32.0964 63.9572C33.3454 64.1902 33.8041 63.4123 33.8041 62.7488C33.8041 62.1498 33.7809 60.171 33.7701 58.0719C26.8152 59.5915 25.3476 55.1081 25.3476 55.1081C24.2104 52.2045 22.5718 51.4325 22.5718 51.4325C20.3032 49.8734 22.7428 49.9058 22.7428 49.9058C25.2528 50.0826 26.5751 52.4945 26.5751 52.4945C28.8048 56.334 32.4234 55.2241 33.85 54.5827C34.0744 52.9591 34.7223 51.8505 35.4373 51.2232C29.8845 50.5889 24.0468 48.4345 24.0468 38.8091C24.0468 36.0665 25.0238 33.8256 26.6231 32.066C26.3631 31.4338 25.5074 28.8788 26.8648 25.4187C26.8648 25.4187 28.9638 24.7435 33.7412 27.9936C35.7357 27.4366 37.8748 27.1566 39.9998 27.1471C42.1235 27.1566 44.2639 27.4358 46.2622 27.9928C51.0338 24.7427 53.1302 25.4178 53.1302 25.4178C54.491 28.8775 53.6353 31.4329 53.3757 32.0652C54.9786 33.8248 55.9486 36.0657 55.9486 38.8083C55.9486 48.4565 50.1002 50.5805 44.5334 51.2028C45.4305 51.9824 46.2295 53.5115 46.2295 55.8548C46.2295 59.2159 46.2005 61.921 46.2005 62.7484C46.2005 63.4169 46.6509 64.2002 47.9177 63.9535C57.8451 60.6281 65 51.2153 65 40.1203C64.9996 26.2469 53.8062 15.0004 39.9998 15.0004V15Z" fill="#D6D269"/>
<path d="M24.4688 51.0668C24.4137 51.1916 24.2183 51.2291 24.0403 51.1438C23.8582 51.0623 23.7567 50.8921 23.8155 50.7669C23.8694 50.638 24.0652 50.6026 24.2461 50.6887C24.4282 50.7707 24.5317 50.9425 24.4684 51.0672L24.4688 51.0668ZM25.4814 52.202C25.3626 52.3131 25.1295 52.2615 24.9714 52.0856C24.8074 51.9109 24.7768 51.6767 24.8981 51.5639C25.0215 51.4533 25.2475 51.5057 25.4114 51.6804C25.5746 51.8576 25.6069 52.0897 25.4818 52.2025L25.4814 52.202ZM26.4675 53.6484C26.3144 53.7557 26.0635 53.6555 25.9086 53.4321C25.7555 53.2083 25.7555 52.94 25.9128 52.8331C26.0672 52.7258 26.3144 52.8227 26.4717 53.044C26.624 53.2707 26.624 53.539 26.4675 53.648V53.6484ZM27.8175 55.0465C27.6809 55.1984 27.3886 55.1576 27.175 54.9508C26.9569 54.7483 26.896 54.46 27.033 54.3086C27.1721 54.1563 27.4656 54.1988 27.6805 54.4043C27.8987 54.6064 27.9645 54.8951 27.8184 55.0461L27.8175 55.0465ZM29.6805 55.8581C29.6196 56.0549 29.3389 56.1443 29.0554 56.0603C28.7726 55.9742 28.5876 55.7441 28.6455 55.5453C28.7035 55.3469 28.9862 55.2541 29.2715 55.3435C29.5542 55.4292 29.7393 55.658 29.6805 55.8581ZM31.7268 56.0083C31.7338 56.2154 31.4937 56.3868 31.1969 56.391C30.8976 56.398 30.6554 56.23 30.6525 56.0262C30.6525 55.8169 30.8877 55.6476 31.1866 55.6418C31.4834 55.6364 31.7272 55.8028 31.7272 56.0079L31.7268 56.0083ZM33.6303 55.683C33.6659 55.8847 33.4593 56.0923 33.1642 56.1476C32.8744 56.2017 32.6053 56.0761 32.568 55.876C32.5324 55.6688 32.7427 55.4613 33.0325 55.4076C33.3281 55.3564 33.5931 55.4783 33.6303 55.6834V55.683Z" fill="#D6D269"/>
</svg>
