<svg width="42" height="41" viewBox="0 0 42 41" fill="none" xmlns="http://www.w3.org/2000/svg">
<path d="M13.848 32.8453C13.848 33.01 13.656 33.1418 13.4139 33.1418C13.1384 33.1666 12.9465 33.0347 12.9465 32.8453C12.9465 32.6805 13.1384 32.5487 13.3805 32.5487C13.6309 32.524 13.848 32.6558 13.848 32.8453ZM11.252 32.4746C11.1936 32.6393 11.3605 32.8288 11.6109 32.8782C11.8279 32.9606 12.0784 32.8782 12.1284 32.7135C12.1785 32.5487 12.0199 32.3592 11.7695 32.2851C11.5525 32.2274 11.3104 32.3098 11.252 32.4746ZM14.9414 32.3345C14.6994 32.3922 14.5324 32.5487 14.5575 32.7382C14.5825 32.9029 14.7995 33.01 15.05 32.9524C15.292 32.8947 15.459 32.7382 15.4339 32.5734C15.4089 32.4169 15.1835 32.3098 14.9414 32.3345ZM20.4339 0.76709C8.85635 0.76709 0 9.44155 0 20.8674C0 30.0032 5.82633 37.8209 14.1485 40.5724C15.2169 40.7618 15.5925 40.1111 15.5925 39.5756C15.5925 39.0649 15.5675 36.2475 15.5675 34.5176C15.5675 34.5176 9.72446 35.7532 8.49742 32.0627C8.49742 32.0627 7.54584 29.6655 6.17691 29.0476C6.17691 29.0476 4.2654 27.7543 6.31046 27.779C6.31046 27.779 8.38891 27.9438 9.53247 29.9044C11.3605 33.0842 14.4239 32.1698 15.6176 31.6261C15.8095 30.308 16.3521 29.3936 16.9531 28.8499C12.287 28.3392 7.57923 27.6719 7.57923 19.7471C7.57923 17.4817 8.21362 16.3449 9.54917 14.895C9.33214 14.3595 8.62263 12.1518 9.76619 9.3015C11.5108 8.76604 15.5257 11.5257 15.5257 11.5257C17.1952 11.0644 18.9898 10.8255 20.7678 10.8255C22.5457 10.8255 24.3404 11.0644 26.0098 11.5257C26.0098 11.5257 30.0248 8.7578 31.7693 9.3015C32.9129 12.16 32.2034 14.3595 31.9864 14.895C33.3219 16.3531 34.1399 17.4899 34.1399 19.7471C34.1399 27.6966 29.2235 28.3309 24.5574 28.8499C25.3253 29.5007 25.9764 30.7364 25.9764 32.6723C25.9764 35.4484 25.9514 38.8836 25.9514 39.5591C25.9514 40.0946 26.3353 40.7454 27.3954 40.5559C35.7426 37.8209 41.402 30.0032 41.402 20.8674C41.402 9.44155 32.0114 0.76709 20.4339 0.76709ZM8.11345 29.1794C8.00494 29.2618 8.02998 29.4513 8.17188 29.6078C8.30544 29.7396 8.49742 29.7973 8.60593 29.6902C8.71445 29.6078 8.68941 29.4183 8.5475 29.2618C8.41395 29.13 8.22196 29.0723 8.11345 29.1794ZM7.21196 28.5122C7.15353 28.6193 7.237 28.7511 7.40394 28.8334C7.5375 28.9158 7.70444 28.8911 7.76287 28.7758C7.8213 28.6687 7.73783 28.5369 7.57089 28.4545C7.40394 28.4051 7.27039 28.4298 7.21196 28.5122ZM9.91644 31.4448C9.78289 31.5519 9.83297 31.7991 10.025 31.9556C10.2169 32.1451 10.459 32.1698 10.5675 32.038C10.676 31.9309 10.626 31.6837 10.459 31.5272C10.2754 31.3377 10.025 31.313 9.91644 31.4448ZM8.96486 30.2339C8.83131 30.3163 8.83131 30.5304 8.96486 30.7199C9.09842 30.9094 9.32379 30.9918 9.4323 30.9094C9.56586 30.8023 9.56586 30.5881 9.4323 30.3986C9.31544 30.2092 9.09842 30.1268 8.96486 30.2339Z" fill="#EFEDDE"/>
</svg>
