<svg width="79" height="79" viewBox="0 0 79 79" fill="none" xmlns="http://www.w3.org/2000/svg">
<ellipse cx="39.3856" cy="39.4251" rx="39.4254" ry="39.3856" transform="rotate(-90 39.3856 39.4251)" fill="#1CA199"/>
<ellipse cx="39.6846" cy="39.72" rx="33.489" ry="33.46" transform="rotate(-90 39.6846 39.72)" fill="#141D1C"/>
<path d="M19 20L22.8223 62.3183L39.9744 67L57.1739 62.3236L61 20H19V20ZM53.0497 30.0192L52.8102 32.7269L52.7048 33.9685H32.5846L33.0648 39.2539H52.2264L52.0981 40.5643L50.8629 54.2003L50.772 55.0573L40 57.9827V57.9835L39.987 57.9903L29.2223 55.1879L28.4914 47.182H33.7693L34.1433 51.3043L39.9836 52.845H40V52.6388L45.8662 51.1759L46.479 44.5393H28.2565L26.964 30.1491L26.8383 28.6831H53.1758L53.0497 30.0192V30.0192Z" fill="#D6D269"/>
</svg>
