<svg width="79" height="79" viewBox="0 0 79 79" fill="none" xmlns="http://www.w3.org/2000/svg">
<ellipse cx="39.3856" cy="39.4251" rx="39.4254" ry="39.3856" transform="rotate(-90 39.3856 39.4251)" fill="#1CA199"/>
<ellipse cx="39.6846" cy="39.72" rx="33.489" ry="33.46" transform="rotate(-90 39.6846 39.72)" fill="#141D1C"/>
<path fill-rule="evenodd" clip-rule="evenodd" d="M20 19V58.9218C20.3175 58.9478 20.3143 58.9964 20.4314 58.9964C31.9453 58.9998 43.4995 58.9998 55.0134 58.9998C56.5988 58.9998 58.1432 59.0011 59.7289 58.9964C59.833 58.996 60 58.9478 60 58.9218C59.9997 45.6055 59.9997 32.3293 59.9997 19H20V19ZM56.1902 38.9666V54.3749C56.1902 54.9106 56.1099 54.8621 55.5934 54.8621H24.6892C24.1727 54.8621 24.127 54.9109 24.127 54.3752V23.5193C24.127 22.9832 24.1727 22.8084 24.7282 22.8084H55.5543C56.1102 22.8084 56.1902 22.9832 56.1902 23.5583V38.9666V38.9666ZM40.1313 31.494C40.0633 31.2839 39.937 31.2731 39.7525 31.274C38.764 31.2801 37.7751 31.2959 36.7872 31.274C36.4748 31.2674 36.3392 31.361 36.2427 31.6653C34.8507 36.0402 33.4437 40.4122 32.0418 44.7839C31.8132 45.4967 31.592 46.2123 31.3482 46.9861C32.2723 46.9861 33.1167 46.9734 33.9605 46.9943C34.2472 47.0013 34.3666 46.907 34.4446 46.637C34.8059 45.3916 35.197 44.1549 35.5548 42.9086C35.6389 42.6147 35.7751 42.5354 36.0707 42.5388C37.4751 42.5553 38.8802 42.5553 40.2846 42.5388C40.5579 42.5357 40.669 42.6239 40.7465 42.8759C41.1316 44.1292 41.5408 45.3748 41.9255 46.6281C42.0052 46.887 42.1052 46.9867 42.4039 46.9651C42.8176 46.935 43.2354 46.928 43.6516 46.928H45.1093L45.1027 46.8229C43.4449 41.7112 41.7849 36.607 40.1313 31.494V31.494ZM36.1907 40.2633C36.8373 38.0418 37.4792 35.8685 38.1116 33.7117C38.7633 35.8609 39.4262 38.0418 40.0989 40.2633H36.1907V40.2633ZM45.7141 46.928H48.8887V35.5029H45.7141V46.928ZM47.3239 30.9186C46.3833 30.9195 45.6887 31.5873 45.695 32.4851C45.7014 33.3854 46.3687 34.0265 47.3004 34.0281C48.269 34.0294 48.9537 33.3886 48.9471 32.487C48.9401 31.5635 48.2718 30.9176 47.3239 30.9186Z" fill="#D6D269"/>
</svg>
