<svg width="38" height="38" viewBox="0 0 38 38" fill="none" xmlns="http://www.w3.org/2000/svg">
<path d="M19.2963 9.66359C13.9875 9.66359 9.70536 13.8896 9.70536 19.1289C9.70536 24.3682 13.9875 28.5942 19.2963 28.5942C24.6051 28.5942 28.8872 24.3682 28.8872 19.1289C28.8872 13.8896 24.6051 9.66359 19.2963 9.66359ZM19.2963 25.2826C15.8656 25.2826 13.0609 22.5229 13.0609 19.1289C13.0609 15.7349 15.8572 12.9752 19.2963 12.9752C22.7353 12.9752 25.5316 15.7349 25.5316 19.1289C25.5316 22.5229 22.7269 25.2826 19.2963 25.2826V25.2826ZM31.5165 9.27641C31.5165 10.5039 30.5149 11.4842 29.2795 11.4842C28.0357 11.4842 27.0424 10.4956 27.0424 9.27641C27.0424 8.05721 28.0441 7.06867 29.2795 7.06867C30.5149 7.06867 31.5165 8.05721 31.5165 9.27641ZM37.8687 11.5171C37.7268 8.55972 37.0423 5.94009 34.847 3.78177C32.6601 1.62345 30.0057 0.947949 27.009 0.799668C23.9206 0.626673 14.6636 0.626673 11.5751 0.799668C8.58684 0.939711 5.93244 1.61521 3.73713 3.77353C1.54182 5.93185 0.865701 8.55148 0.715452 11.5089C0.540162 14.5569 0.540162 23.6926 0.715452 26.7407C0.857354 29.698 1.54182 32.3177 3.73713 34.476C5.93244 36.6343 8.57849 37.3098 11.5751 37.4581C14.6636 37.6311 23.9206 37.6311 27.009 37.4581C30.0057 37.3181 32.6601 36.6425 34.847 34.476C37.034 32.3177 37.7185 29.698 37.8687 26.7407C38.044 23.6926 38.044 14.5651 37.8687 11.5171V11.5171ZM33.8788 30.0111C33.2277 31.6257 31.9673 32.8696 30.3229 33.5204C27.8605 34.4842 22.0174 34.2618 19.2963 34.2618C16.5751 34.2618 10.7237 34.476 8.26964 33.5204C6.6336 32.8779 5.37317 31.6339 4.71375 30.0111C3.73713 27.5809 3.9625 21.8144 3.9625 19.1289C3.9625 16.4433 3.74548 10.6686 4.71375 8.24668C5.36483 6.63207 6.62525 5.38815 8.26964 4.73736C10.7321 3.77353 16.5751 3.99595 19.2963 3.99595C22.0174 3.99595 27.8688 3.78177 30.3229 4.73736C31.9589 5.37991 33.2193 6.62383 33.8788 8.24668C34.8554 10.6768 34.63 16.4433 34.63 19.1289C34.63 21.8144 34.8554 27.5892 33.8788 30.0111Z" fill="#EFEDDE"/>
</svg>
