<svg width="79" height="79" viewBox="0 0 79 79" fill="none" xmlns="http://www.w3.org/2000/svg">
<ellipse cx="39.3856" cy="39.4251" rx="39.4254" ry="39.3856" transform="rotate(-90 39.3856 39.4251)" fill="#1CA199"/>
<ellipse cx="39.6846" cy="39.72" rx="33.489" ry="33.46" transform="rotate(-90 39.6846 39.72)" fill="#141D1C"/>
<path d="M19 18V59H60V18H19ZM40.687 52.9363C40.0819 54.1659 38.9267 54.9738 37.5881 55.3638C35.5312 55.8361 33.5639 55.5668 32.1003 54.6884C31.1209 54.0875 30.356 53.1626 29.8368 52.0969L32.9594 50.1847C32.9866 50.1962 33.0686 50.3444 33.1781 50.536C33.5763 51.2031 33.9197 51.6754 34.5948 52.007C35.258 52.2334 36.714 52.378 37.2762 51.211C37.6196 50.6173 37.5104 48.709 37.5104 46.5977C37.51 43.2799 37.5254 39.976 37.5254 36.696H41.366C41.366 40.304 41.3857 43.7211 41.366 47.2419C41.3742 49.4001 41.5615 51.3241 40.687 52.9363ZM56.6193 51.8512C55.2843 56.4177 47.8414 56.5659 44.8671 53.549C44.2386 52.8388 43.8447 52.4679 43.4698 51.6482C45.0504 50.739 45.0504 50.739 46.5884 49.8491C47.4238 51.1332 48.1963 51.8394 49.586 52.1284C51.4713 52.3587 53.3682 51.7109 52.9428 49.7084C52.5055 48.073 49.0822 47.6751 46.7524 45.9262C44.3872 44.3377 43.8329 40.4778 45.7766 38.2724C46.4244 37.4566 47.5291 36.8479 48.6883 36.5553L49.8979 36.3988C52.2205 36.3519 53.6722 36.9653 54.7379 38.1553C55.0344 38.4557 55.2765 38.7798 55.7291 39.482C54.4919 40.2705 54.4958 40.263 52.7236 41.4103C52.3451 40.5949 51.717 40.0833 51.0531 39.8609C50.0226 39.5486 48.723 39.8881 48.4534 40.9771C48.3599 41.3126 48.3793 41.6249 48.5279 42.1792C48.9454 43.1314 50.3466 43.5453 51.6035 44.1229C55.2217 45.5904 56.4435 47.1638 56.7439 49.0367C57.0332 50.6491 56.6741 51.6951 56.6193 51.8512V51.8512Z" fill="#D6D269"/>
</svg>
