<svg width="38" height="37" viewBox="0 0 38 37" fill="none" xmlns="http://www.w3.org/2000/svg">
<path d="M8.94448 36.9056H1.18996V12.2662H8.94448V36.9056V36.9056ZM5.06304 8.90512C2.58393 8.90512 0.572266 6.8786 0.572266 4.43196C0.572266 1.98532 2.58393 0 5.06304 0C7.54215 0 9.55382 1.98532 9.55382 4.43196C9.55382 6.8786 7.54215 8.90512 5.06304 8.90512ZM37.9676 36.9056H30.2298V24.9113C30.2298 22.0527 30.1713 18.3869 26.1981 18.3869C22.1664 18.3869 21.5487 21.4925 21.5487 24.7053V36.9056H13.8025V12.2662H21.2399V15.6272H21.3484C22.3834 13.6913 24.9126 11.6483 28.6855 11.6483C36.5319 11.6483 37.9759 16.7475 37.9759 23.3708V36.9056H37.9676Z" fill="#EFEDDE"/>
</svg>
