<svg width="79" height="79" viewBox="0 0 79 79" fill="none" xmlns="http://www.w3.org/2000/svg">
<ellipse cx="39.3856" cy="39.4251" rx="39.4254" ry="39.3856" transform="rotate(-90 39.3856 39.4251)" fill="#1CA199"/>
<ellipse cx="39.6846" cy="39.72" rx="33.489" ry="33.46" transform="rotate(-90 39.6846 39.72)" fill="#141D1C"/>
<path fill-rule="evenodd" clip-rule="evenodd" d="M50.9078 35.7312C50.7554 33.757 50.2918 31.8533 49.647 29.9884C48.3113 25.824 46.1677 22.1386 43.1484 18.9676C42.385 18.1656 41.536 17.4307 41.0036 16.4325C40.6668 15.8011 40.346 15.161 40.0178 14.5247L39.8099 14C39.7749 14.1203 39.7527 14.1632 39.7514 14.2065C39.7247 15.2439 39.1375 15.9474 38.4063 16.6039C37.584 17.3429 36.8186 18.1449 36.0284 18.9194C35.2181 19.986 34.4082 21.0526 33.5987 22.1189C32.9432 23.3244 32.2885 24.5299 31.6338 25.7354L30.3203 29.2869L30.2808 29.3421C29.5578 31.7194 29.2012 34.1634 29.0258 36.6322C28.9599 37.5599 29.0349 38.5012 29.0872 39.4339C29.1617 40.7672 29.3931 42.0778 29.7402 43.3679C31.001 48.0548 33.5596 51.9425 37.0574 55.2455C37.7075 55.8592 38.3746 56.4172 39.0531 57.0012C39.1692 56.6035 39.2619 56.2058 39.3673 55.8081C39.4727 55.412 39.5793 55.018 39.6506 54.6207C39.5789 55.018 39.4986 55.412 39.4192 55.8081L39.0791 57.0012L39.3829 58.032L39.6646 59.6328L39.7988 61.3032C39.7976 61.6424 39.784 61.9824 39.8046 62.3212C39.8095 62.4077 39.9231 62.4877 39.9865 62.571L40.5531 62.77L41.1436 63L41.0423 61.515L41.0377 60.0527L41.2416 57.8251L41.3894 57.34L41.8122 56.5899C42.3343 56.1695 42.8947 55.7879 43.3703 55.3201C44.2309 54.4735 45.0893 53.6163 45.8593 52.6894C46.8586 51.4871 47.7184 50.1749 48.4085 48.7674C48.8704 47.826 49.3052 46.8657 49.6651 45.8819C49.9822 45.0148 50.1786 44.1035 50.4285 43.2116C50.4507 43.1474 50.4804 43.0843 50.4944 43.0188C51.0107 40.6114 51.0976 38.1798 50.9078 35.7312V35.7312ZM41.1909 56.0809L40.8595 55.3543L41.1909 56.0809L41.678 56.4972L41.1909 56.0809Z" fill="#D6D269"/>
</svg>
