<svg width="79" height="79" viewBox="0 0 79 79" fill="none" xmlns="http://www.w3.org/2000/svg">
<ellipse cx="39.3856" cy="39.4251" rx="39.4254" ry="39.3856" transform="rotate(-90 39.3856 39.4251)" fill="#1CA199"/>
<ellipse cx="39.6846" cy="39.72" rx="33.489" ry="33.46" transform="rotate(-90 39.6846 39.72)" fill="#141D1C"/>
<path d="M57.7571 48.9574C55.5203 48.8968 53.8121 49.1039 52.3517 49.7161C51.9368 49.8901 51.2745 49.895 51.2067 50.4119C51.4349 50.6495 51.4704 51.0047 51.6516 51.297C52.0003 51.8577 52.589 52.6103 53.1143 53.0044C53.6886 53.4354 54.2802 53.896 54.8955 54.269C55.9899 54.9324 57.2118 55.3116 58.2655 55.9763C58.8867 56.3685 59.5037 56.8621 60.1096 57.3042C60.4094 57.5229 60.6105 57.8629 61 58V57.9371C60.7953 57.6778 60.7425 57.322 60.5548 57.0514L59.7279 56.2291C58.9196 55.1622 57.8933 54.2249 56.8025 53.4468C55.9326 52.8258 53.9858 51.987 53.6231 50.9807L53.5595 50.9175C54.1762 50.8482 54.8981 50.6265 55.4675 50.4745C56.4237 50.2197 57.2783 50.2855 58.2655 50.0321L59.6008 49.6526V49.3998C59.1018 48.8906 58.7459 48.2165 58.202 47.7556C56.7777 46.55 55.2237 45.3453 53.6234 44.3406C52.7356 43.7838 51.6389 43.4218 50.698 42.9496C50.3815 42.7905 49.8255 42.7078 49.6166 42.4434C49.1221 41.8172 48.8532 41.0232 48.4722 40.2936C47.6741 38.7649 46.8902 37.0954 46.183 35.487C45.7006 34.3902 45.3854 33.309 44.7838 32.3251C41.8961 27.604 38.7881 24.7548 33.9733 21.954C32.9486 21.3583 31.715 21.1233 30.4113 20.8154C29.7122 20.7736 29.0125 20.7312 28.313 20.6887C27.8858 20.5117 27.4419 19.9922 27.0413 19.7401C25.4462 18.738 21.3546 16.5584 20.1735 19.4241C19.4274 21.2329 21.2885 22.9972 21.9537 23.9141C22.421 24.5565 23.0191 25.2776 23.3528 26.0006C23.5725 26.4761 23.6103 26.9528 23.7984 27.4555C24.2602 28.6942 24.6627 30.0418 25.2608 31.1862C25.5629 31.7657 25.896 32.3756 26.2783 32.8935C26.5123 33.2115 26.9142 33.3515 26.9774 33.8422C26.585 34.3886 26.5625 35.2371 26.3419 35.9293C25.3478 39.0455 25.7229 42.9191 27.1687 45.2254C27.612 45.9339 28.6572 47.4523 30.0939 46.8696C31.3506 46.3607 31.07 44.783 31.4295 43.3913C31.5107 43.076 31.4608 42.8439 31.6202 42.6326V42.6958L32.7651 44.9723C33.6125 46.3293 35.1157 47.7472 36.39 48.7039C37.0507 49.2001 37.5708 50.0577 38.4251 50.3481V50.2846H38.3615C38.1959 50.0282 37.9368 49.9219 37.7256 49.7158C37.228 49.2306 36.6745 48.6275 36.2632 48.0716C35.1043 46.5072 34.0802 44.795 33.1471 43.0128C32.7012 42.1614 32.3137 41.2228 31.9383 40.3565C31.7936 40.0227 31.7955 39.5174 31.4937 39.3447C31.0821 39.9793 30.4762 40.4926 30.1581 41.2419C29.6493 42.4398 29.5838 43.9008 29.3951 45.4157C29.2836 45.4552 29.3332 45.428 29.2677 45.4785C28.3818 45.2662 28.0709 44.3597 27.7414 43.5816C26.909 41.6143 26.7542 38.4473 27.4868 36.1828C27.6765 35.5965 28.533 33.7517 28.1863 33.2102C28.0207 32.6702 27.4744 32.3578 27.1691 31.9452C26.7907 31.4351 26.4132 30.7636 26.1509 30.1744C25.4697 28.6411 25.1516 26.9191 24.4343 25.3687C24.0911 24.6275 23.5112 23.8772 23.0351 23.2186C22.5081 22.4884 21.9175 21.9507 21.5088 21.0682C21.3634 20.7545 21.1662 20.2521 21.3813 19.9297C21.4498 19.7122 21.5469 19.6215 21.763 19.5505C22.1319 19.2675 23.1592 19.6445 23.5432 19.803C24.563 20.2243 25.4143 20.6255 26.2783 21.1946C26.6926 21.4682 27.1123 21.9968 27.6136 22.1433H28.1859C29.0812 22.3478 30.0841 22.2065 30.9207 22.4592C32.3991 22.9059 33.724 23.601 34.927 24.3565C38.5923 26.6582 41.5894 29.9342 43.6395 33.8425C43.9693 34.4719 44.1121 35.0721 44.4025 35.7398C44.9885 37.0857 45.7267 38.4706 46.3098 39.7871C46.8918 41.1003 47.459 42.4255 48.2816 43.5184C48.7141 44.0927 50.3841 44.4009 51.1435 44.7201C51.6754 44.9434 52.5472 45.1768 53.0514 45.4785C54.0139 46.0561 54.9467 46.7435 55.8498 47.3761C56.3005 47.6921 57.688 48.386 57.7571 48.9574V48.9574ZM29.3306 24.8637C28.8642 24.855 28.5343 24.9143 28.1856 24.9898V25.053H28.2492C28.4718 25.5074 28.8645 25.8004 29.1392 26.1915C29.3511 26.6346 29.5633 27.077 29.7754 27.5194L29.8387 27.4568C30.2327 27.1804 30.4129 26.7393 30.4107 26.0651C30.2529 25.9002 30.2298 25.6934 30.0929 25.4964C29.9117 25.2335 29.56 25.0841 29.3306 24.8637Z" fill="#D6D269"/>
</svg>
