<svg width="79" height="79" viewBox="0 0 79 79" fill="none" xmlns="http://www.w3.org/2000/svg">
<ellipse cx="39.3856" cy="39.4251" rx="39.4254" ry="39.3856" transform="rotate(-90 39.3856 39.4251)" fill="#1CA199"/>
<ellipse cx="39.6846" cy="39.72" rx="33.489" ry="33.46" transform="rotate(-90 39.6846 39.72)" fill="#141D1C"/>
<path d="M59.3005 26.6357L41.5793 16.4716C40.4617 15.8428 39.0065 15.8428 37.8801 16.4716L19.9696 26.6357C18.8162 27.2911 18 28.5229 18 29.8404V50.1417C18 51.4592 18.8375 52.6914 19.9909 53.3504L24.7229 56.0052C26.9846 57.1056 27.7839 57.1056 28.8131 57.1056C32.1619 57.1056 34.0748 55.1053 34.0748 51.6164V31.5739C34.0748 31.2909 33.9257 30.8697 33.6444 30.8697H31.3847C31.0985 30.8697 30.4579 31.2909 30.4579 31.5735V51.616C30.4579 53.1626 29.0418 54.7016 26.395 53.3944L21.5055 50.6105C21.3351 50.5192 21.215 50.3355 21.215 50.1417V29.8404C21.215 29.6491 21.438 29.4569 21.6096 29.3589L39.4622 19.2122C39.629 19.1189 39.8741 19.1189 40.0405 19.2122L57.6753 29.3565C57.8441 29.4569 57.7846 29.6431 57.7846 29.8404V50.1417C57.7846 50.3355 57.8582 50.524 57.6914 50.6173L39.9746 60.7699C39.8227 60.86 39.6342 60.86 39.4678 60.7699L34.9239 58.0909C34.7869 58.0123 34.6241 57.9841 34.4927 58.0567C33.2284 58.7645 32.9953 58.8586 31.8094 59.2647C31.5177 59.3651 31.0873 59.5394 31.9742 60.0304L37.9211 63.5054C38.4905 63.8309 39.1375 64 39.7885 64C40.4484 64 41.0946 63.8309 41.6641 63.5054L59.3001 53.3504C60.4535 52.6866 61 51.4592 61 50.1417V29.8404C61 28.5229 60.4535 27.2943 59.3005 26.6357V26.6357ZM45.2909 46.9248C40.5786 46.9248 39.5406 45.6406 39.1946 43.3259C39.1544 43.0766 38.9402 42.7785 38.6834 42.7785H36.3803C36.0954 42.7785 35.8663 43.1199 35.8663 43.4002C35.8663 46.3639 37.4975 49.9548 45.2913 49.9548C50.9332 49.9548 54.1678 47.7893 54.1678 43.9571C54.1678 40.1574 51.5689 39.1602 46.0975 38.4449C40.567 37.7228 40.0052 37.358 40.0052 36.0782C40.0052 35.0231 40.481 33.6159 44.576 33.6159C48.235 33.6159 49.5837 34.3916 50.1387 36.8277C50.1861 37.0567 50.3979 37.2211 50.637 37.2211H52.9494C53.0916 37.2211 53.2274 37.1643 53.3271 37.0639C53.4236 36.9559 53.4746 36.8205 53.4617 36.6753C53.1037 32.4802 50.2821 30.5252 44.5756 30.5252C39.4996 30.5252 36.4715 32.6425 36.4715 36.1918C36.4715 40.0415 39.4843 41.1053 44.357 41.5813C50.1861 42.1458 50.6394 42.9873 50.6394 44.1198C50.6394 46.0868 49.0408 46.9248 45.2909 46.9248Z" fill="#D6D269"/>
</svg>
