<svg width="79" height="79" viewBox="0 0 79 79" fill="none" xmlns="http://www.w3.org/2000/svg">
<ellipse cx="39.3856" cy="39.4251" rx="39.4254" ry="39.3856" transform="rotate(-90 39.3856 39.4251)" fill="#1CA199"/>
<ellipse cx="39.6846" cy="39.72" rx="33.489" ry="33.46" transform="rotate(-90 39.6846 39.72)" fill="#141D1C"/>
<path fill-rule="evenodd" clip-rule="evenodd" d="M58.7511 19.0033C47.2517 18.9998 35.8038 19.0002 24.3041 19.0002C22.6594 19.0002 20.9863 18.9989 19.3416 19.0036C19.2375 19.004 19 19.0521 19 19.0784V59H59V19.0784C59 19.0521 58.8686 19.0033 58.7511 19.0033V19.0033ZM54.7079 55.0932C44.3457 55.0812 33.987 55.0837 23.6248 55.0837C23.1244 55.0837 23.1267 55.0828 23.1267 54.5684V23.5914C23.127 23.0824 23.1219 23.2075 23.6276 23.2075H54.6746C55.1946 23.2075 55.1905 23.0821 55.1905 23.6164V39.0854C55.1905 44.2548 55.1883 49.4241 55.2019 54.5931C55.2032 54.9868 55.1102 55.0936 54.7079 55.0932V55.0932ZM36.7206 31.3302C34.6038 30.8351 32.473 31.0793 30.3444 31.2963C29.8927 31.3425 29.8063 31.5354 29.8076 31.9355C29.8213 36.7523 29.7937 41.5691 29.7937 46.3858V46.6468H32.6508V40.9894C34.2381 41.1082 35.6908 41.08 37.1108 40.5745C39.3867 39.7642 40.5241 38.0053 40.4013 35.4371C40.3019 33.3631 38.9962 31.8623 36.7206 31.3302V31.3302ZM36.1006 38.4076C35.0867 38.9008 34.0086 38.8891 32.9244 38.7427C32.84 38.7313 32.7102 38.5809 32.7095 38.4944C32.6968 36.8058 32.7 35.1175 32.7 33.3827C33.694 33.2281 34.6365 33.1528 35.5768 33.3884C36.7429 33.6808 37.4194 34.4397 37.5454 35.5794C37.6838 36.8318 37.1495 37.8976 36.1006 38.4076V38.4076ZM46.6724 40.6584C46.206 40.4034 45.6946 40.2317 45.2102 40.0081C44.7625 39.8013 44.3108 39.5976 43.8851 39.3506C43.5883 39.1786 43.4533 38.878 43.4533 38.5235C43.4533 37.9242 43.8641 37.4412 44.5657 37.3839C45.0892 37.3411 45.6327 37.395 46.1511 37.4916C46.5879 37.5727 47.0022 37.7763 47.447 37.9334L48.0079 35.9477C46.946 35.4333 45.8654 35.2398 44.7429 35.2794C43.7886 35.3127 42.8971 35.5553 42.0914 36.1026C40.5857 37.1254 39.8511 39.8425 42.1076 41.3024C42.6806 41.6733 43.3435 41.9058 43.9651 42.2022C44.3517 42.3869 44.7552 42.544 45.121 42.7635C45.5819 43.0404 45.7387 43.4911 45.6587 44.0115C45.5803 44.523 45.2365 44.8471 44.7584 44.9218C44.2251 45.0055 43.6581 45.0596 43.1337 44.9674C42.3911 44.8373 41.6737 44.5617 40.9197 44.3406C40.7844 44.8442 40.6559 45.4014 40.4803 45.9433C40.3841 46.2405 40.4406 46.3871 40.7327 46.5034C42.5159 47.21 44.3308 47.3554 46.1556 46.7305C47.5194 46.2633 48.3508 45.2975 48.459 43.8262C48.5644 42.3923 47.9168 41.3394 46.6724 40.6584V40.6584Z" fill="#D6D269"/>
</svg>
