<svg width="79" height="79" viewBox="0 0 79 79" fill="none" xmlns="http://www.w3.org/2000/svg">
<ellipse cx="39.3856" cy="39.4251" rx="39.4254" ry="39.3856" transform="rotate(-90 39.3856 39.4251)" fill="#1CA199"/>
<ellipse cx="39.6846" cy="39.72" rx="33.489" ry="33.46" transform="rotate(-90 39.6846 39.72)" fill="#141D1C"/>
<path fill-rule="evenodd" clip-rule="evenodd" d="M59.9717 47.0336C59.812 46.004 58.9421 45.3297 57.9303 45.2842C57.564 45.2676 57.192 45.3057 56.8268 45.3519C56.3857 45.4077 55.9498 45.5065 55.5097 45.5718C55.2056 45.6169 54.8971 45.6377 54.5933 45.6688L54.5859 45.6296C55.153 44.5648 55.744 43.5116 56.2806 42.4315C56.692 41.6031 57.044 40.7446 57.4078 39.8932C58.0098 38.4826 58.4907 37.0282 58.8889 35.5502C59.2704 34.135 59.5969 32.7042 59.6995 31.2361C59.7407 30.6497 59.7691 30.0608 59.7659 29.4737C59.763 29.0055 59.7123 28.5365 59.6651 28.0697C59.6118 27.5349 59.4493 27.0278 59.2243 26.5399C58.9276 25.897 58.4676 25.3695 57.9835 24.8685C57.5959 24.4673 57.1697 24.1018 56.747 23.7366C56.1443 23.2154 55.4668 22.7995 54.763 22.43C53.9634 22.0102 53.1229 21.6817 52.2466 21.4597C51.7167 21.3253 51.1748 21.2255 50.6381 21.1189C50.4451 21.0801 50.2516 21 50.0586 21H46.4239C46.2925 21 46.1623 21.0674 46.0299 21.0822C45.1596 21.1785 44.2997 21.3415 43.4646 21.5988C43.1522 21.6951 42.8669 21.6344 42.5702 21.6072C42.3427 21.5864 42.1191 21.5257 41.8916 21.5144C41.0249 21.4714 40.1571 21.4082 39.2907 21.4174C38.4606 21.4259 37.639 21.5617 36.8354 21.7886C36.1629 21.9784 35.5048 22.2102 34.9022 22.5616C34.6442 22.712 34.4397 22.6837 34.1728 22.6072C33.276 22.3499 32.3727 22.1083 31.4616 21.9054C30.8938 21.7791 30.3099 21.7163 29.73 21.6559C29.1742 21.5984 28.6141 21.5638 28.0555 21.5522C27.5096 21.5405 26.9599 21.5409 26.4165 21.5889C25.5509 21.6654 24.7015 21.8405 23.876 22.1227C22.9593 22.436 22.1188 22.8901 21.3611 23.4864C20.592 24.0915 19.9751 24.8304 19.4789 25.674C18.9561 26.5642 18.5977 27.5172 18.3748 28.5182C18.2541 29.0605 18.1778 29.618 18.0951 30.1688C18.0692 30.3402 18.3549 30.5117 18 30.6825V33.0796C18.3549 33.2391 18.0738 33.3983 18.0944 33.5581C18.1437 33.9423 18.1874 34.3297 18.2527 34.7112C18.356 35.3149 18.4784 35.9168 18.6034 36.5166C18.7776 37.3546 18.959 38.1919 19.1521 39.0256C19.2926 39.6325 19.4527 40.2358 19.6202 40.836C19.8761 41.7527 20.1281 42.6711 20.4173 43.5775C20.686 44.4198 20.9937 45.25 21.299 46.0802C21.7217 47.2287 22.2278 48.3401 22.8347 49.4053C23.3596 50.3276 23.9594 51.1914 24.764 51.902C25.2942 52.3702 25.8845 52.7301 26.5716 52.91C27.1114 53.0511 27.6601 53.0681 28.2127 52.9555C28.8534 52.825 29.4205 52.5508 29.9248 52.1401C29.9827 52.0929 30.0462 52.0569 30.1147 52.1437C30.3756 52.4721 30.7248 52.6913 31.09 52.8807C32.0756 53.3916 33.1496 53.5448 34.2406 53.6072C34.5047 53.6224 34.7716 53.5846 35.0378 53.5772C35.5563 53.5631 36.0603 53.4626 36.5561 53.32C36.8159 53.2452 37.0697 53.1503 37.3341 53.0617C37.3479 53.3415 37.3657 53.6111 37.3738 53.8807L37.4107 55.3506C37.4175 55.5743 37.4264 55.7987 37.4473 56.0213C37.5009 56.5954 37.5534 57.1698 37.6223 57.7421C37.6702 58.1366 37.7199 58.5342 37.8132 58.9191C38.001 59.6964 38.2554 60.4533 38.5791 61.1872C38.8968 61.9073 39.3536 62.5152 39.9633 63.0166C40.7512 63.6644 41.6747 63.9407 42.672 63.9918C43.0844 64.0134 43.5086 63.9933 43.9146 63.9199C44.5581 63.8038 45.2001 63.6577 45.8265 63.47C47.101 63.0875 48.2027 62.427 49.0257 61.3597C49.4942 60.7514 49.879 60.0934 50.126 59.3669C50.3297 58.7667 50.5217 58.1605 50.6743 57.5463C50.795 57.0622 50.8546 56.5629 50.9281 56.0686C50.9767 55.7415 51.0058 55.4113 51.0364 55.0817C51.086 54.5465 51.1368 54.0116 51.1726 53.4753C51.1975 53.102 51.1964 52.7269 51.2113 52.3529C51.2159 52.2389 51.2344 52.1257 51.245 52.012C51.255 51.9069 51.3082 51.8706 51.4161 51.8723C51.7962 51.878 52.1771 51.8879 52.5561 51.8709C52.9809 51.8519 53.4097 51.8339 53.8278 51.764C54.423 51.6649 55.0153 51.5396 55.5988 51.3875C56.2884 51.2083 56.9209 50.8872 57.5296 50.5213C58.2387 50.0955 58.885 49.5958 59.4095 48.9523C59.8656 48.3909 60.0818 47.742 59.9717 47.0336V47.0336ZM58.7608 47.38C58.7373 47.7029 58.5886 47.9795 58.3728 48.2159C57.3546 49.3319 56.0772 50.009 54.616 50.3424C54.061 50.4688 53.4881 50.5344 52.9199 50.5866C52.4361 50.6311 51.9453 50.6385 51.4598 50.6208C51.1027 50.6074 50.7485 50.5263 50.3837 50.474C50.3471 50.8057 50.3123 51.1511 50.2701 51.4959L50.1001 52.8172C50.0486 53.236 50.0085 53.6563 49.9556 54.0747C49.9038 54.4808 49.8392 54.8855 49.7849 55.2916C49.7342 55.6699 49.6969 56.0499 49.6405 56.4274C49.5535 57.0061 49.4705 57.5861 49.3569 58.1602C49.2206 58.8465 49.0116 59.5112 48.6705 60.1301C48.2545 60.8855 47.6646 61.461 46.914 61.8872C46.1403 62.3268 45.2945 62.5555 44.437 62.7467C43.8301 62.8822 43.2048 62.9044 42.59 62.8494C41.5239 62.7534 40.6139 62.3 39.926 61.4783C39.2694 60.6939 38.8251 59.7949 38.6661 58.7773C38.5901 58.2936 38.5355 57.8056 38.4918 57.318C38.4436 56.7757 38.4105 56.2316 38.3857 55.6879C38.3541 54.9974 38.331 54.3069 38.3158 53.6164C38.297 52.7675 38.2909 51.9185 38.2789 51.0696L38.2767 51.0372C37.8423 51.2961 37.4154 51.5798 36.9625 51.8134C36.4322 52.0872 35.8562 52.246 35.2596 52.2908C34.7918 52.3261 34.318 52.3582 33.8524 52.3211C33.0889 52.2601 32.3262 52.1412 31.6426 51.7675C31.3655 51.6158 31.0762 51.4313 30.8852 51.1889C30.4274 50.6081 30.6467 49.8742 31.3371 49.521C31.8141 49.2765 32.3347 49.1746 32.8518 49.0556C33.3012 48.9523 33.7484 48.8348 34.1867 48.6926C34.6204 48.5514 34.894 48.2018 35.1641 47.8588L35.5922 47.3116C35.4136 47.2929 35.2454 47.2738 35.0772 47.2583C34.5664 47.2103 34.0791 47.0706 33.6131 46.8653C33.2142 46.6899 33.2082 46.6708 32.9157 46.9863C32.4274 47.5134 31.9525 48.0529 31.4741 48.5888C31.122 48.983 30.772 49.3796 30.4217 49.7747C30.0746 50.1657 29.7495 50.5788 29.3758 50.9426C28.8207 51.4828 28.1517 51.8078 27.3535 51.7711C26.8413 51.7478 26.3725 51.5692 25.9508 51.2774C25.0806 50.6748 24.4943 49.8319 23.9605 48.9466C23.2765 47.8123 22.7516 46.6038 22.3023 45.3622C21.9914 44.5041 21.6791 43.6453 21.4076 42.7748C21.1126 41.8289 20.8539 40.8709 20.5994 39.9133C20.407 39.1907 20.2363 38.4621 20.0734 37.7321C19.8885 36.9019 19.7107 36.0703 19.5538 35.2344C19.4481 34.6702 19.3867 34.0979 19.3011 33.5299C19.1858 32.7642 19.1645 31.9915 19.2064 31.2227C19.2436 30.5301 19.3437 29.8392 19.4431 29.1512C19.5808 28.1992 19.8963 27.3009 20.3503 26.4527C20.6282 25.933 20.9731 25.4605 21.3721 25.0216C22.0269 24.3011 22.8194 23.7803 23.701 23.3894C24.3172 23.1163 24.9681 22.9519 25.6314 22.8234C26.616 22.6329 27.6094 22.6403 28.6031 22.6608C29.0376 22.6696 29.4702 22.7483 29.9043 22.791C30.8388 22.8834 31.7548 23.0789 32.6591 23.3202C33.3182 23.496 33.9638 23.7235 34.6176 23.9211C34.6832 23.9409 34.7794 23.9391 34.833 23.9042C35.7189 23.3294 36.6871 22.9501 37.7167 22.7331C38.1074 22.6509 38.5106 22.6149 38.9103 22.5895C39.3962 22.5588 39.8859 22.5306 40.3708 22.5585C40.9535 22.5916 41.5335 22.677 42.1127 22.7561C42.3938 22.7942 42.6681 22.8912 42.9499 22.9177C43.0848 22.9304 43.2278 22.8323 43.3705 22.7995C44.0977 22.6326 44.8218 22.4466 45.5554 22.3147C46.1016 22.2166 46.6595 22.1704 47.215 22.1386C47.8343 22.1033 48.4582 22.0776 49.0772 22.1072C49.8598 22.1446 50.6367 22.2554 51.4037 22.4329C52.3538 22.6527 53.2652 22.972 54.1316 23.4152C54.7789 23.7461 55.3944 24.13 55.9484 24.6021C56.3115 24.9119 56.6831 25.2178 57.011 25.5629C57.4156 25.9884 57.8284 26.4142 58.0822 26.9594C58.2731 27.3704 58.4094 27.7959 58.447 28.2462C58.4939 28.8058 58.5506 29.3675 58.5453 29.9278C58.5404 30.4637 58.4669 30.9993 58.4147 31.5339C58.2962 32.7526 58.0296 33.9448 57.7059 35.1211C57.4383 36.0929 57.1257 37.054 56.7871 38.0038C56.4751 38.8792 56.1152 39.7387 55.7514 40.5947C55.4827 41.2277 55.1935 41.8539 54.879 42.4658C54.2838 43.6252 53.6649 44.7726 52.949 45.8646C52.8255 46.0534 52.7084 46.2467 52.5877 46.4394C52.9 46.649 53.2539 46.7227 53.6102 46.7608C53.9492 46.7975 54.2948 46.8194 54.6334 46.7943C55.1754 46.7545 55.7156 46.6775 56.2543 46.6024C56.7881 46.5283 57.3113 46.3773 57.8593 46.4172C58.4066 46.4567 58.798 46.8702 58.7608 47.38V47.38ZM50.948 46.197C50.7155 45.8985 50.4784 45.6035 50.2509 45.3015C49.8939 44.8273 49.6373 44.2977 49.3796 43.7656C49.1354 43.2614 48.8359 42.784 48.5786 42.2855C48.1296 41.4157 47.6725 40.5488 47.259 39.6621C46.739 38.5482 46.3291 37.3948 46.1999 36.161C46.1452 35.6388 46.1314 35.1173 46.2375 34.6C46.4075 33.774 46.8416 33.128 47.5713 32.6848C48.2481 32.2738 49.0023 32.1411 49.775 32.0995C50.2545 32.0737 50.7361 32.0949 51.2337 32.0949L51.217 32.0113C50.9075 31.368 50.6183 30.7139 50.2797 30.0858C49.802 29.1995 49.1908 28.4004 48.5101 27.6594C48.0057 27.1107 47.4595 26.6016 46.8611 26.1517C46.2727 25.7089 45.6526 25.3134 44.9911 24.9899C44.2021 24.6042 43.3804 24.3061 42.5184 24.1159C41.69 23.9331 40.8563 23.8213 40.0066 23.8121C39.2819 23.8043 38.5617 23.8368 37.8558 23.9994C36.7904 24.2447 35.8158 24.6808 34.9679 25.3871C34.4944 25.7816 34.0813 26.2244 33.7196 26.7173C33.2951 27.297 32.9526 27.923 32.6598 28.5792C32.2581 29.4797 31.9823 30.4168 31.7938 31.38C31.6994 31.8603 31.6256 32.3447 31.5504 32.8288C31.5241 32.9981 31.522 33.1714 31.5067 33.3654C31.6377 33.2977 31.7321 33.2455 31.8286 33.1989L32.1427 33.0588C33.205 32.5758 34.3056 32.265 35.4885 32.3006C35.9911 32.3158 36.472 32.4146 36.9188 32.6333C37.776 33.0535 38.2775 33.768 38.4954 34.6723C38.6459 35.2965 38.7488 35.933 38.8489 36.5678C38.9273 37.0635 39.0075 37.5645 39.0167 38.0645C39.0299 38.7952 38.9926 39.5273 38.9525 40.2577C38.9184 40.8801 38.7878 41.4926 38.5692 42.0734C38.1717 43.1294 37.7288 44.1682 37.3149 45.2182C37.1783 45.5651 37.0732 45.9242 36.944 46.3057C37.1435 46.3057 37.3053 46.3042 37.4672 46.3064C37.5304 46.3074 37.5949 46.3092 37.656 46.3237C38.1316 46.4351 38.544 46.6493 38.8822 47.0131C39.3333 47.4972 39.5701 48.0621 39.5821 48.7159C39.5889 49.0782 39.5505 49.4417 39.5523 49.804C39.5598 51.4927 39.5725 53.1813 39.5867 54.8697C39.5892 55.1456 39.6031 55.4218 39.6229 55.6974C39.6645 56.2743 39.7063 56.8515 39.7631 57.427C39.8029 57.8352 39.8583 58.2428 39.9232 58.6482C40.0151 59.2226 40.2781 59.7338 40.5766 60.2225C40.8336 60.6427 41.1675 60.9998 41.6076 61.2461C42.3554 61.6645 43.1608 61.6995 43.9724 61.5453C44.5208 61.4412 45.0592 61.274 45.5916 61.1014C46.1165 60.9317 46.5907 60.6537 46.9889 60.2709C47.3619 59.9113 47.6267 59.4731 47.8052 58.9894C48.1516 58.0512 48.2595 57.0632 48.4029 56.0831C48.4565 55.7161 48.503 55.3481 48.5519 54.9804C48.6077 54.562 48.6641 54.1439 48.718 53.7258C48.7578 53.4142 48.794 53.102 48.8323 52.7904C48.887 52.343 48.9448 51.896 48.997 51.4482C49.0371 51.1021 49.0712 50.7545 49.1067 50.4077C49.1525 49.9646 49.2018 49.5214 49.2412 49.0775C49.2717 48.7406 49.2593 48.3976 49.3193 48.067C49.4296 47.4608 49.7178 46.945 50.2584 46.6116C50.4845 46.4722 50.7396 46.3805 50.9906 46.2626L50.948 46.197V46.197ZM30.5058 43.7088C30.2358 43.073 30.0736 42.4104 30.0253 41.7252C29.9799 41.0812 30.0569 40.4398 30.1232 39.7987C30.1878 39.1777 30.2414 38.5539 30.2602 37.9301C30.2915 36.9047 30.2219 35.8808 30.1726 34.8562C30.1428 34.2461 30.2141 33.6287 30.2688 33.0172C30.3181 32.4664 30.3795 31.9142 30.4842 31.3716C30.6599 30.4609 30.8931 29.5633 31.2246 28.6932C31.5394 27.8683 31.901 27.0649 32.4117 26.3416C32.7617 25.8455 33.1588 25.3819 33.5404 24.8971L33.4272 24.8572C32.1857 24.4652 30.9239 24.1589 29.6264 24.0252C29.0127 23.962 28.3969 23.925 27.7815 23.8887C27.5927 23.8774 27.401 23.9028 27.2115 23.9208C26.7423 23.9652 26.2674 23.9829 25.8057 24.0704C25.0199 24.2189 24.2661 24.4687 23.5679 24.8755C22.9411 25.2407 22.4148 25.7128 21.974 26.2791C21.4871 26.9043 21.1595 27.6114 20.9242 28.3654C20.6463 29.2549 20.5139 30.1702 20.478 31.0939C20.4468 31.9036 20.4312 32.718 20.5717 33.5246C20.6764 34.1251 20.7463 34.732 20.8617 35.33C21.0189 36.1454 21.1875 36.9591 21.3824 37.766C21.661 38.9212 21.9392 40.0781 22.2693 41.2192C22.5852 42.3126 22.9415 43.3962 23.3277 44.4667C23.6435 45.3403 24.0087 46.1977 24.3935 47.0438C24.644 47.5949 24.9475 48.1252 25.2655 48.6414C25.6037 49.1894 25.9885 49.7095 26.5105 50.1071C27.1693 50.6092 27.6793 50.6872 28.3487 50.1364C28.6354 49.9003 28.8778 49.6089 29.1273 49.3312C29.5238 48.8902 29.9064 48.4371 30.3011 47.9947C30.8036 47.4308 31.3126 46.873 31.8176 46.312C31.9244 46.1935 32.027 46.0714 32.131 45.9514L31.9592 45.8015C31.3314 45.202 30.8451 44.5069 30.5058 43.7088V43.7088ZM49.5606 26.9248C49.9709 27.4032 50.368 27.8958 50.735 28.4081C51.4449 29.3992 52.012 30.4694 52.4298 31.6143C52.6147 32.1189 52.7623 32.6284 52.6963 33.1806C52.6505 33.5673 52.6544 33.9596 52.62 34.3484C52.5912 34.672 52.5398 34.9938 52.4975 35.3163C52.4344 35.8025 52.3428 36.2873 52.3155 36.7756C52.2896 37.2403 52.3165 37.7099 52.346 38.1756C52.3758 38.6488 52.44 39.1198 52.4837 39.5923C52.533 40.1279 52.5994 40.6635 52.6147 41.2001C52.6271 41.6408 52.5877 42.0843 52.549 42.5243C52.5029 43.0543 52.3676 43.5673 52.1661 44.0595C52.0244 44.406 51.8551 44.7419 51.6951 45.0887L51.7593 45.1565L51.8569 45.2316L51.9552 45.0566C52.7854 43.7554 53.524 42.404 54.1635 41.0015C54.5749 40.0982 54.9603 39.1823 55.3301 38.2614C55.9065 36.8275 56.3626 35.3533 56.7154 33.8499C56.8737 33.1749 56.9947 32.4897 57.1022 31.8045C57.186 31.2689 57.2559 30.7269 57.2715 30.1864C57.2882 29.613 57.2563 29.0351 57.203 28.4632C57.1633 28.0313 57.0561 27.5966 56.7839 27.2455C56.3463 26.6803 55.8739 26.1397 55.2929 25.7121C54.8038 25.3519 54.3165 24.9824 53.7916 24.6794C52.9593 24.1995 52.0585 23.8798 51.1173 23.6621C50.1987 23.4494 49.2682 23.3576 48.3315 23.3382C47.7793 23.3266 47.2245 23.3855 46.6734 23.437C46.174 23.4836 45.6778 23.563 45.1749 23.6286C45.7144 23.9303 46.2464 24.1984 46.7482 24.5146C47.8034 25.179 48.7489 25.9785 49.5606 26.9248V26.9248ZM35.852 45.5269C36.193 44.4427 36.6576 43.4075 37.1076 42.3659C37.4725 41.5212 37.672 40.6314 37.7383 39.7175C37.7713 39.267 37.7621 38.8107 37.7398 38.3588C37.7146 37.8567 37.6741 37.3532 37.6006 36.856C37.5062 36.2206 37.3987 35.5848 37.2475 34.961C37.0835 34.286 36.67 33.816 35.9616 33.6428C35.53 33.5373 35.1013 33.5415 34.6651 33.61C33.5997 33.7768 32.6243 34.1671 31.7158 34.7387C31.533 34.8537 31.4325 34.9465 31.4641 35.2072C31.5308 35.7594 31.5454 36.3204 31.5429 36.8779C31.5394 37.6669 31.5056 38.4558 31.4755 39.2444C31.4655 39.5012 31.4283 39.7567 31.4006 40.0125C31.358 40.4041 31.276 40.7954 31.2785 41.1864C31.281 41.5893 31.3225 42.0018 31.4208 42.392C31.7331 43.6294 32.3947 44.642 33.479 45.3565C34.1459 45.7958 34.8837 46.0174 35.6937 46.0594C35.7487 45.8745 35.7977 45.6998 35.852 45.5269ZM34.5792 34.9112C34.4365 34.6134 34.5182 34.3668 34.849 34.2525C34.9295 34.2242 35.0126 34.1943 35.0963 34.1861C35.2113 34.1748 35.3285 34.1833 35.4449 34.1833C35.8644 34.1854 36.2679 34.2436 36.6143 34.509C36.8365 34.679 36.8961 34.9049 36.7524 35.1367C36.5483 35.4655 36.237 35.6306 35.8548 35.6624C35.2525 35.7121 34.8298 35.4331 34.5792 34.9112ZM51.2745 34.8025C51.3228 34.406 51.3615 34.0083 51.4108 33.6117C51.4307 33.4522 51.3462 33.4092 51.2117 33.4053C50.7886 33.3937 50.3656 33.3789 49.9425 33.3711C49.4655 33.3626 49.0013 33.4388 48.5597 33.6191C48.07 33.8195 47.6969 34.1406 47.5447 34.6706C47.4311 35.0658 47.4006 35.4606 47.4407 35.8737C47.5017 36.5036 47.6423 37.1147 47.8641 37.7C48.1601 38.4837 48.4699 39.267 48.8401 40.0178C49.3416 41.0343 49.9091 42.0184 50.4419 43.0194C50.5842 43.2864 50.7038 43.5652 50.8522 43.8771C51.1627 43.2233 51.3143 42.5688 51.3316 41.8935C51.3462 41.3254 51.3004 40.7549 51.267 40.1864C51.2461 39.8385 51.1968 39.4928 51.1627 39.1456C51.1151 38.6618 51.0431 38.1785 51.0321 37.6937C51.0211 37.2008 51.0562 36.705 51.0988 36.2128C51.1389 35.7407 51.2174 35.2725 51.2745 34.8025V34.8025ZM50.3201 34.4208C50.1629 34.8523 49.8268 35.0957 49.391 35.1674C48.9846 35.2337 48.6286 35.0845 48.3638 34.7623C48.1754 34.533 48.2474 34.2613 48.5299 34.1064C48.8543 33.9279 49.211 33.8827 49.6316 33.8555C49.7459 33.8763 49.918 33.8936 50.0816 33.9402C50.3191 34.0069 50.4067 34.1844 50.3201 34.4208ZM37.7483 47.7085C37.5158 47.5198 37.2084 47.5088 36.9873 47.7159C36.713 47.9735 36.4716 48.2681 36.2303 48.5585C35.9517 48.8941 35.6905 49.243 35.3309 49.503C34.8078 49.8809 34.198 50.0376 33.5851 50.1858C33.0978 50.3036 32.6084 50.413 32.1196 50.5263L32.1136 50.5891C32.2588 50.6558 32.3993 50.739 32.5505 50.7867C33.2958 51.0213 34.0539 51.1381 34.8415 51.0717C35.4101 51.0238 35.9517 50.9006 36.4649 50.6586C37.1712 50.3259 37.7146 49.7987 38.1767 49.1855C38.254 49.0832 38.2892 48.9318 38.2984 48.7998C38.33 48.3337 38.0918 47.9873 37.7483 47.7085V47.7085ZM56.1156 47.8941C55.5158 47.958 54.9152 48.0257 54.3137 48.0599C54.0233 48.0765 53.7288 48.0215 53.4356 47.9978C52.944 47.9583 52.4642 47.8497 52.0486 47.5886C51.8079 47.4379 51.6081 47.421 51.3526 47.5064C50.9877 47.6284 50.69 47.814 50.6019 48.2071C50.542 48.4728 50.5203 48.748 50.4962 49.02C50.4916 49.068 50.5519 49.1562 50.598 49.1682C50.8795 49.2419 51.1623 49.3291 51.4502 49.3549C51.8037 49.3866 52.1636 49.3764 52.5196 49.3587C52.9039 49.3397 53.2908 49.315 53.6695 49.2515C54.5621 49.1026 55.4256 48.8598 56.1926 48.3567C56.4691 48.175 56.7431 47.9894 57.0178 47.8056L56.995 47.7667C56.7019 47.8101 56.4101 47.8631 56.1156 47.8941V47.8941Z" fill="#D6D269"/>
</svg>
