<svg width="236" height="189" viewBox="0 0 236 189" fill="none" xmlns="http://www.w3.org/2000/svg">
<g filter="url(#filter0_i)">
<path d="M17.526 174.488L17.578 176.854C17.578 177.842 17.4133 178.683 17.084 179.376C16.7547 180.069 16.2173 180.685 15.472 181.222C14.744 181.759 13.7387 182.271 12.456 182.756L11.39 180.884V180.572C12.4647 180.017 13.2187 179.471 13.652 178.934C14.1027 178.379 14.328 177.669 14.328 176.802V174.826L14.172 165.856L11.416 165.934L11.156 165.674L11.338 163.256H17.708L17.526 174.488ZM34.607 171.758L34.581 173.968C34.5983 175.961 34.0177 177.504 32.839 178.596C31.6603 179.688 29.9703 180.234 27.769 180.234C25.6543 180.234 24.0423 179.705 22.933 178.648C21.8237 177.591 21.295 176.074 21.347 174.098L21.373 171.68L21.295 163.256H24.831L24.649 173.63C24.6317 174.895 24.9003 175.831 25.455 176.438C26.0097 177.045 26.8503 177.348 27.977 177.348C30.2303 177.348 31.3483 176.169 31.331 173.812L31.149 163.256H34.737L34.607 171.758ZM52.1491 174.826L52.2791 180H48.4831L41.6451 168.664H41.4371L41.4111 174.228L41.5151 180H38.3171L38.4991 175.06L38.3431 163.256H42.1131L48.9511 174.592H49.1851L49.1071 163.412L52.3571 163.204L52.1491 174.826ZM59.7752 174.696L59.9312 180H56.3952L56.5772 175.008L56.3952 163.256H59.9832L59.7752 174.696ZM70.4646 163.022C72.822 163.022 74.6333 163.741 75.8986 165.18C77.1813 166.601 77.8226 168.629 77.8226 171.264C77.8226 174.141 77.1293 176.36 75.7426 177.92C74.356 179.48 72.3973 180.26 69.8666 180.26C67.5266 180.26 65.7153 179.532 64.4326 178.076C63.1673 176.603 62.5346 174.523 62.5346 171.836C62.5346 169.011 63.2193 166.835 64.5886 165.31C65.9753 163.785 67.934 163.022 70.4646 163.022ZM70.1526 165.856C68.766 165.856 67.7606 166.289 67.1366 167.156C66.5126 168.023 66.2006 169.435 66.2006 171.394C66.2006 173.63 66.504 175.225 67.1106 176.178C67.7346 177.131 68.7573 177.608 70.1786 177.608C71.5653 177.608 72.5706 177.175 73.1946 176.308C73.8186 175.424 74.1306 173.985 74.1306 171.992C74.1306 169.791 73.8186 168.222 73.1946 167.286C72.588 166.333 71.574 165.856 70.1526 165.856ZM89.2027 173.344C90.5547 175.493 91.8981 177.435 93.2327 179.168L93.1807 179.558C92.0541 179.957 90.9014 180.191 89.7227 180.26L89.3587 179.974C88.1107 177.825 87.0967 175.953 86.3167 174.358H83.7947V174.696L83.9507 180H80.4147L80.5967 175.008L80.4147 163.256L86.8367 163.23C88.5874 163.23 89.9394 163.663 90.8927 164.53C91.8461 165.379 92.3227 166.601 92.3227 168.196C92.3227 169.271 92.0454 170.259 91.4907 171.16C90.9534 172.044 90.1907 172.772 89.2027 173.344ZM83.8467 171.628L86.4207 171.732C87.8941 171.229 88.6307 170.163 88.6307 168.534C88.6307 167.65 88.3881 166.991 87.9027 166.558C87.4347 166.107 86.7067 165.865 85.7187 165.83L83.9507 165.934L83.8467 171.628ZM106.42 163.152C108.847 163.152 110.71 163.828 112.01 165.18C113.31 166.532 113.96 168.473 113.96 171.004C113.96 173.968 113.232 176.239 111.776 177.816C110.32 179.393 108.24 180.182 105.536 180.182C104.722 180.182 103.742 180.165 102.598 180.13C101.472 180.095 100.501 180.052 99.6862 180L99.8682 175.008L99.6862 163.256L106.42 163.152ZM106.16 177.452C108.916 177.452 110.294 175.571 110.294 171.81C110.294 169.765 109.956 168.283 109.28 167.364C108.622 166.428 107.582 165.96 106.16 165.96C105.242 165.96 104.262 166.003 103.222 166.09L103.066 174.696L103.144 177.27C104.358 177.391 105.363 177.452 106.16 177.452ZM127.126 177.088L127.334 177.374L127.1 180H116.596L116.778 175.008L116.596 163.256H127.204L127.412 163.542L127.152 166.168L123.148 166.038L120.132 166.064L120.054 170.094L122.94 170.146L125.67 170.068L125.878 170.328L125.644 172.954L122.68 172.876L120.002 172.902L119.976 174.696L120.054 177.218L122.992 177.244L127.126 177.088ZM137.391 180H133.179L128.057 163.256H131.645L132.061 165.466L135.233 176.724H135.467L139.107 165.648L139.549 163.256H143.033L137.391 180ZM155.513 177.088L155.721 177.374L155.487 180H144.983L145.165 175.008L144.983 163.256H155.591L155.799 163.542L155.539 166.168L151.535 166.038L148.519 166.064L148.441 170.094L151.327 170.146L154.057 170.068L154.265 170.328L154.031 172.954L151.067 172.876L148.389 172.902L148.363 174.696L148.441 177.218L151.379 177.244L155.513 177.088ZM167.39 177.374L167.156 180H158.108L158.29 175.008L158.108 163.256H161.696L161.488 174.696L161.566 177.088H167.182L167.39 177.374ZM175.277 163.022C177.634 163.022 179.446 163.741 180.711 165.18C181.994 166.601 182.635 168.629 182.635 171.264C182.635 174.141 181.942 176.36 180.555 177.92C179.168 179.48 177.21 180.26 174.679 180.26C172.339 180.26 170.528 179.532 169.245 178.076C167.98 176.603 167.347 174.523 167.347 171.836C167.347 169.011 168.032 166.835 169.401 165.31C170.788 163.785 172.746 163.022 175.277 163.022ZM174.965 165.856C173.578 165.856 172.573 166.289 171.949 167.156C171.325 168.023 171.013 169.435 171.013 171.394C171.013 173.63 171.316 175.225 171.923 176.178C172.547 177.131 173.57 177.608 174.991 177.608C176.378 177.608 177.383 177.175 178.007 176.308C178.631 175.424 178.943 173.985 178.943 171.992C178.943 169.791 178.631 168.222 178.007 167.286C177.4 166.333 176.386 165.856 174.965 165.856ZM191.649 163.23C193.4 163.23 194.743 163.672 195.679 164.556C196.633 165.44 197.109 166.705 197.109 168.352C197.109 169.617 196.832 170.727 196.277 171.68C195.723 172.616 194.925 173.344 193.885 173.864C192.863 174.384 191.658 174.644 190.271 174.644H188.607V174.696L188.763 180H185.227L185.409 175.008L185.227 163.256L191.649 163.23ZM191.051 172.07C192.646 171.619 193.443 170.484 193.443 168.664C193.443 167.728 193.201 167.035 192.715 166.584C192.247 166.116 191.519 165.865 190.531 165.83L188.763 165.934L188.659 171.966L191.051 172.07ZM210.128 177.088L210.336 177.374L210.102 180H199.598L199.78 175.008L199.598 163.256H210.206L210.414 163.542L210.154 166.168L206.15 166.038L203.134 166.064L203.056 170.094L205.942 170.146L208.672 170.068L208.88 170.328L208.646 172.954L205.682 172.876L203.004 172.902L202.978 174.696L203.056 177.218L205.994 177.244L210.128 177.088ZM221.615 173.344C222.967 175.493 224.31 177.435 225.645 179.168L225.593 179.558C224.466 179.957 223.313 180.191 222.135 180.26L221.771 179.974C220.523 177.825 219.509 175.953 218.729 174.358H216.207V174.696L216.363 180H212.827L213.009 175.008L212.827 163.256L219.249 163.23C220.999 163.23 222.351 163.663 223.305 164.53C224.258 165.379 224.735 166.601 224.735 168.196C224.735 169.271 224.457 170.259 223.903 171.16C223.365 172.044 222.603 172.772 221.615 173.344ZM216.259 171.628L218.833 171.732C220.306 171.229 221.043 170.163 221.043 168.534C221.043 167.65 220.8 166.991 220.315 166.558C219.847 166.107 219.119 165.865 218.131 165.83L216.363 165.934L216.259 171.628Z" fill="#D7D369"/>
</g>
<g filter="url(#filter1_i)">
<path d="M19.69 146.29C22.014 149.902 24.114 152.94 25.99 155.404L25.906 156.16C23.778 156.86 21.524 157.294 19.144 157.462L18.472 156.916C16.792 153.78 15.336 150.91 14.104 148.306H10.534L10.786 157H3.94L4.318 148.978L3.94 129.91L15.364 129.868C18.304 129.868 20.558 130.582 22.126 132.01C23.722 133.41 24.52 135.426 24.52 138.058C24.52 139.71 24.1 141.25 23.26 142.678C22.42 144.106 21.23 145.31 19.69 146.29ZM10.66 143.182L14.314 143.35C15.35 142.958 16.106 142.384 16.582 141.628C17.086 140.872 17.338 139.892 17.338 138.688C17.338 137.372 16.988 136.406 16.288 135.79C15.616 135.146 14.552 134.796 13.096 134.74L10.828 134.866L10.66 143.182ZM46.1257 151.456L46.5037 151.96L46.0837 157H28.1917L28.5697 148.978L28.1917 129.91H46.3357L46.7137 130.414L46.2517 135.454L39.6577 135.202L35.0377 135.244L34.9537 140.662H39.3637L43.7737 140.536L44.1517 141.04L43.7317 146.08L38.9017 145.954H34.8277L34.7857 148.306L34.8697 151.666L39.3217 151.708L46.1257 151.456ZM66.8091 151.456L67.1871 151.96L66.7671 157H48.8751L49.2531 148.978L48.8751 129.91H67.0191L67.3971 130.414L66.9351 135.454L60.3411 135.202L55.7211 135.244L55.6371 140.662H60.0471L64.4571 140.536L64.8351 141.04L64.4151 146.08L59.5851 145.954H55.5111L55.4691 148.306L55.5531 151.666L60.0051 151.708L66.8091 151.456ZM80.4903 129.532C83.0663 129.532 85.4043 129.994 87.5043 130.918L86.2863 136.504L85.8243 136.756C85.0403 136.224 84.1443 135.818 83.1363 135.538C82.1563 135.23 81.1903 135.076 80.2383 135.076C78.2223 135.076 76.7243 135.706 75.7443 136.966C74.7923 138.226 74.3163 140.214 74.3163 142.93C74.3163 148.81 76.4023 151.75 80.5743 151.75C81.4983 151.75 82.4783 151.624 83.5143 151.372C84.5503 151.12 85.4883 150.77 86.3283 150.322L86.9163 150.658L86.3703 156.244C84.4103 157.028 82.2963 157.42 80.0283 157.42C75.8003 157.42 72.5943 156.244 70.4103 153.892C68.2263 151.54 67.1343 148.138 67.1343 143.686C67.1343 139.178 68.2963 135.692 70.6203 133.228C72.9443 130.764 76.2343 129.532 80.4903 129.532ZM107.396 151.456L107.775 151.96L107.354 157H89.4625L89.8405 148.978L89.4625 129.91H107.607L107.985 130.414L107.522 135.454L100.929 135.202L96.3085 135.244L96.2245 140.662H100.635L105.044 140.536L105.422 141.04L105.003 146.08L100.172 145.954H96.0985L96.0565 148.306L96.1405 151.666L100.592 151.708L107.396 151.456ZM137.132 157H130.202L129.488 153.094L129.11 151.54L124.238 151.456L120.038 151.582L119.702 152.674L118.946 157H112.268L121.004 129.91H129.194L137.132 157ZM127.808 146.416L125.162 136.126H124.742L121.592 146.416L124.7 146.5L127.808 146.416ZM155.122 146.29C157.446 149.902 159.546 152.94 161.422 155.404L161.338 156.16C159.21 156.86 156.956 157.294 154.576 157.462L153.904 156.916C152.224 153.78 150.768 150.91 149.536 148.306H145.966L146.218 157H139.372L139.75 148.978L139.372 129.91L150.796 129.868C153.736 129.868 155.99 130.582 157.558 132.01C159.154 133.41 159.952 135.426 159.952 138.058C159.952 139.71 159.532 141.25 158.692 142.678C157.852 144.106 156.662 145.31 155.122 146.29ZM146.092 143.182L149.746 143.35C150.782 142.958 151.538 142.384 152.014 141.628C152.518 140.872 152.77 139.892 152.77 138.688C152.77 137.372 152.42 136.406 151.72 135.79C151.048 135.146 149.984 134.796 148.528 134.74L146.26 134.866L146.092 143.182ZM192.562 157H186.556L186.22 148.768L185.464 139.864H185.044L179.668 154.27H174.46L169.756 139.864H169.294L168.454 148.138L167.908 157H162.238L164.926 129.91H172.78L173.746 133.858L177.232 145.45H177.652L181.432 133.984L182.524 129.91H190.252L192.562 157ZM213.93 151.456L214.308 151.96L213.888 157H195.996L196.374 148.978L195.996 129.91H214.14L214.518 130.414L214.056 135.454L207.462 135.202L202.842 135.244L202.758 140.662H207.168L211.578 140.536L211.956 141.04L211.536 146.08L206.706 145.954H202.632L202.59 148.306L202.674 151.666L207.126 151.708L213.93 151.456ZM226.046 129.49C228.454 129.49 230.89 129.966 233.354 130.918L232.262 136.63L231.254 137.008C230.19 136.308 229.126 135.762 228.062 135.37C226.998 134.978 226.074 134.782 225.29 134.782C224.366 134.782 223.624 135.02 223.064 135.496C222.532 135.944 222.266 136.476 222.266 137.092C222.266 137.792 222.602 138.394 223.274 138.898C223.974 139.374 225.066 139.948 226.55 140.62C228.118 141.348 229.378 142.02 230.33 142.636C231.31 143.224 232.15 144.022 232.85 145.03C233.578 146.038 233.942 147.27 233.942 148.726C233.942 150.35 233.494 151.82 232.598 153.136C231.73 154.452 230.484 155.502 228.86 156.286C227.236 157.042 225.36 157.42 223.232 157.42C220.404 157.42 217.604 156.86 214.832 155.74L215.798 149.65L216.512 149.23C217.688 150.21 218.962 150.98 220.334 151.54C221.734 152.072 222.938 152.338 223.946 152.338C225.01 152.338 225.808 152.1 226.34 151.624C226.9 151.148 227.18 150.588 227.18 149.944C227.18 149.188 226.83 148.558 226.13 148.054C225.43 147.55 224.338 146.962 222.854 146.29C221.342 145.59 220.096 144.946 219.116 144.358C218.164 143.742 217.338 142.93 216.638 141.922C215.938 140.914 215.588 139.682 215.588 138.226C215.588 136.574 216.022 135.09 216.89 133.774C217.786 132.43 219.018 131.38 220.586 130.624C222.182 129.868 224.002 129.49 226.046 129.49Z" fill="#60D9CA"/>
</g>
<g filter="url(#filter2_i)">
<g filter="url(#filter3_d)">
<path d="M184.81 0H154.905L109.098 119.413V0H66.0561C58.1046 0 50.6717 1.025 43.9302 3.075C37.1888 5.125 31.3116 8.2 26.2987 12.3C21.2858 16.4 17.4829 21.3542 14.7172 27.3333C11.9515 33.3125 10.5686 40.1458 10.5686 47.8333C10.5686 53.9833 11.4329 59.2792 13.1615 63.55C14.8901 67.8208 16.7915 71.4083 18.8658 74.3125C21.2858 77.5583 24.2244 80.2917 27.3359 82.3417L4 123H50.6717L69.3404 91.9083V123H107.715H109.098H146.954L156.288 98.4L169.771 63.2083L183.427 98.4L192.761 123H232L184.81 0ZM69.3404 60.475H67.2661C62.5989 60.475 58.4503 59.45 55.166 57.4C51.8817 55.35 50.1531 51.7625 50.1531 46.8083C50.1531 41.8542 51.8817 38.4375 55.166 36.2167C58.4503 34.1667 62.4261 33.1417 67.2661 33.1417H69.3404V60.475ZM102.529 117.875H95.9606V14.5208H102.529V117.875ZM180.488 25.9667L178.76 21.6958L177.031 17.425H183.945L185.674 21.6958L187.403 25.9667L222.32 115.825L223.184 118.217H216.27L198.379 72.0917L180.488 25.9667Z" fill="#EFEDDE"/>
</g>
</g>
<defs>
<filter id="filter0_i" x="11.1562" y="163.022" width="214.489" height="20.734" filterUnits="userSpaceOnUse" color-interpolation-filters="sRGB">
<feFlood flood-opacity="0" result="BackgroundImageFix"/>
<feBlend mode="normal" in="SourceGraphic" in2="BackgroundImageFix" result="shape"/>
<feColorMatrix in="SourceAlpha" type="matrix" values="0 0 0 0 0 0 0 0 0 0 0 0 0 0 0 0 0 0 127 0" result="hardAlpha"/>
<feOffset dy="1"/>
<feGaussianBlur stdDeviation="0.5"/>
<feComposite in2="hardAlpha" operator="arithmetic" k2="-1" k3="1"/>
<feColorMatrix type="matrix" values="0 0 0 0 0 0 0 0 0 0 0 0 0 0 0 0 0 0 0.25 0"/>
<feBlend mode="normal" in2="shape" result="effect1_innerShadow"/>
</filter>
<filter id="filter1_i" x="3.93945" y="129.49" width="230.002" height="31.972" filterUnits="userSpaceOnUse" color-interpolation-filters="sRGB">
<feFlood flood-opacity="0" result="BackgroundImageFix"/>
<feBlend mode="normal" in="SourceGraphic" in2="BackgroundImageFix" result="shape"/>
<feColorMatrix in="SourceAlpha" type="matrix" values="0 0 0 0 0 0 0 0 0 0 0 0 0 0 0 0 0 0 127 0" result="hardAlpha"/>
<feOffset dy="4"/>
<feGaussianBlur stdDeviation="2"/>
<feComposite in2="hardAlpha" operator="arithmetic" k2="-1" k3="1"/>
<feColorMatrix type="matrix" values="0 0 0 0 0 0 0 0 0 0 0 0 0 0 0 0 0 0 0.3 0"/>
<feBlend mode="normal" in2="shape" result="effect1_innerShadow"/>
</filter>
<filter id="filter2_i" x="4" y="0" width="232" height="127" filterUnits="userSpaceOnUse" color-interpolation-filters="sRGB">
<feFlood flood-opacity="0" result="BackgroundImageFix"/>
<feBlend mode="normal" in="SourceGraphic" in2="BackgroundImageFix" result="shape"/>
<feColorMatrix in="SourceAlpha" type="matrix" values="0 0 0 0 0 0 0 0 0 0 0 0 0 0 0 0 0 0 127 0" result="hardAlpha"/>
<feOffset dx="4" dy="4"/>
<feGaussianBlur stdDeviation="2"/>
<feComposite in2="hardAlpha" operator="arithmetic" k2="-1" k3="1"/>
<feColorMatrix type="matrix" values="0 0 0 0 0 0 0 0 0 0 0 0 0 0 0 0 0 0 0.5 0"/>
<feBlend mode="normal" in2="shape" result="effect1_innerShadow"/>
</filter>
<filter id="filter3_d" x="0" y="0" width="236" height="131" filterUnits="userSpaceOnUse" color-interpolation-filters="sRGB">
<feFlood flood-opacity="0" result="BackgroundImageFix"/>
<feColorMatrix in="SourceAlpha" type="matrix" values="0 0 0 0 0 0 0 0 0 0 0 0 0 0 0 0 0 0 127 0"/>
<feOffset dy="4"/>
<feGaussianBlur stdDeviation="2"/>
<feColorMatrix type="matrix" values="0 0 0 0 0 0 0 0 0 0 0 0 0 0 0 0 0 0 1 0"/>
<feBlend mode="normal" in2="BackgroundImageFix" result="effect1_dropShadow"/>
<feBlend mode="normal" in="SourceGraphic" in2="effect1_dropShadow" result="shape"/>
</filter>
</defs>
</svg>
