<svg width="358" height="275" viewBox="0 0 358 275" fill="none" xmlns="http://www.w3.org/2000/svg">
<g filter="url(#filter0_d)">
<path d="M246.631 36.1934H206.502L145.032 196.28V36.1934H87.274C76.6038 36.1934 66.6295 37.5675 57.583 40.3158C48.5365 43.064 40.6498 47.1864 33.923 52.6829C27.1961 58.1795 22.093 64.8211 18.3816 72.8368C14.6702 80.8526 12.8145 90.0135 12.8145 100.319C12.8145 108.564 13.9743 115.664 16.2939 121.389C18.6135 127.115 21.1651 131.924 23.9487 135.818C27.1961 140.169 31.1394 143.834 35.3147 146.582L4 201.089H66.6295L91.6813 159.407V201.089H143.177H145.032H195.832L208.358 168.11L226.451 120.931L244.776 168.11L257.301 201.089H309.957L246.631 36.1934ZM91.6813 117.267H88.8978C82.6348 117.267 77.0677 115.893 72.6605 113.145C68.2532 110.396 65.9336 105.587 65.9336 98.9453C65.9336 92.3037 68.2532 87.7233 72.6605 84.746C77.0677 81.9977 82.4028 80.6236 88.8978 80.6236H91.6813V117.267ZM136.218 194.218H127.403V55.6602H136.218V194.218ZM240.832 71.0047L238.513 65.2791L236.193 59.5536H245.471L247.791 65.2791L250.111 71.0047L296.967 191.47L298.127 194.676H288.848L264.84 132.841L240.832 71.0047Z" fill="#D6D269"/>
</g>
<g filter="url(#filter1_d)">
<path fill-rule="evenodd" clip-rule="evenodd" d="M244.776 168.11L257.301 201.089H309.957L246.631 36.1934H206.502L145.032 196.28V36.1934H87.274C76.6038 36.1934 66.6295 37.5675 57.583 40.3158C48.5365 43.064 40.6498 47.1864 33.923 52.6829C27.1961 58.1795 22.093 64.8211 18.3816 72.8368C14.6702 80.8526 12.8145 90.0135 12.8145 100.319C12.8145 108.564 13.9743 115.664 16.2939 121.389C18.6135 127.115 21.1651 131.924 23.9487 135.818C27.1961 140.169 31.1394 143.834 35.3147 146.582C35.3147 146.582 35.3147 146.582 35.3147 146.582L4 201.089H66.6295L91.6813 159.407V201.089H195.832L208.358 168.11L226.451 120.931L244.776 168.11ZM195.142 200.089L207.424 167.752L226.445 118.154L245.71 167.755L257.991 200.089H308.501L245.944 37.1934H207.189L145.966 196.638L144.032 196.28V37.1934H87.274C76.6887 37.1934 66.8137 38.5566 57.8737 41.2726C48.9409 43.9863 41.1729 48.0504 34.5557 53.4573C27.9494 58.8553 22.9387 65.3746 19.289 73.257C15.648 81.1209 13.8145 90.1346 13.8145 100.319C13.8145 108.478 14.9633 115.442 17.2208 121.014C19.5172 126.682 22.0317 131.415 24.7562 135.228C27.9329 139.483 31.7887 143.064 35.8645 145.747L36.6506 146.264L5.72779 200.089H66.0638L92.6813 155.802V200.089H195.142ZM92.6813 118.267H88.8978C82.4943 118.267 76.7327 116.863 72.1313 113.993C67.355 111.015 64.9336 105.832 64.9336 98.9453C64.9336 92.0332 67.3707 87.1127 72.1007 83.9173L72.1158 83.9071L72.1313 83.8974C76.7301 81.0298 82.2585 79.6236 88.8978 79.6236H92.6813V118.267ZM137.218 195.218H126.403V54.6602H137.218V195.218ZM288.848 194.676L240.832 71.0047L236.193 59.5536H245.471L250.111 71.0047L296.967 191.47L298.127 194.676H288.848ZM239.905 71.3802L288.164 195.676H299.552L297.903 191.119L297.899 191.108L251.043 70.6421L246.145 58.5536H234.709L239.9 71.3666L239.905 71.3802ZM91.6813 117.267V80.6236H88.8978C82.4028 80.6236 77.0677 81.9977 72.6605 84.746C68.2532 87.7233 65.9336 92.3037 65.9336 98.9453C65.9336 105.587 68.2532 110.396 72.6605 113.145C77.0677 115.893 82.6348 117.267 88.8978 117.267H91.6813ZM136.218 194.218V55.6602H127.403V194.218H136.218Z" fill="black"/>
</g>
<g filter="url(#filter2_d)">
<path d="M253.272 31.2412H213.143L151.673 191.327V31.2412H93.9146C83.2444 31.2412 73.2701 32.6153 64.2236 35.3636C55.1772 38.1119 47.2905 42.2343 40.5636 47.7308C33.8367 53.2273 28.7336 59.8689 25.0222 67.8847C21.3108 75.9005 19.4551 85.0613 19.4551 95.3673C19.4551 103.612 20.615 110.712 22.9346 116.437C25.2542 122.163 27.8057 126.972 30.5893 130.866C33.8367 135.217 37.7801 138.881 41.9554 141.63L10.6406 196.137H73.2701L98.3219 154.455V196.137H149.817H151.673H202.472L214.998 163.158L233.091 115.979L251.416 163.158L263.942 196.137H316.597L253.272 31.2412ZM98.3219 112.315H95.5384C89.2754 112.315 83.7084 110.941 79.3011 108.193C74.8938 105.444 72.5742 100.635 72.5742 93.9932C72.5742 87.3516 74.8938 82.7711 79.3011 79.7938C83.7084 77.0456 89.0435 75.6714 95.5384 75.6714H98.3219V112.315ZM142.858 189.266H134.044V50.7081H142.858V189.266ZM247.473 66.0525L245.153 60.327L242.834 54.6014H252.112L254.432 60.327L256.751 66.0525L303.607 186.518L304.767 189.724H295.489L271.481 127.888L247.473 66.0525Z" fill="#1CA199"/>
</g>
<g filter="url(#filter3_d)">
<path fill-rule="evenodd" clip-rule="evenodd" d="M251.416 163.158L263.942 196.137H316.597L253.272 31.2412H213.143L151.673 191.327V31.2412H93.9146C83.2444 31.2412 73.2701 32.6153 64.2236 35.3636C55.1772 38.1119 47.2905 42.2343 40.5636 47.7308C33.8367 53.2273 28.7336 59.8689 25.0222 67.8847C21.3108 75.9005 19.4551 85.0613 19.4551 95.3673C19.4551 103.612 20.615 110.712 22.9346 116.437C25.2542 122.163 27.8057 126.972 30.5893 130.866C33.8367 135.217 37.78 138.881 41.9553 141.63C41.9553 141.63 41.9553 141.63 41.9553 141.63L10.6406 196.137H73.2701L98.3219 154.455V196.137H202.472L214.998 163.158L233.091 115.979L251.416 163.158ZM201.783 195.137L214.065 162.8L233.085 113.202L252.351 162.803L264.632 195.137H315.142L252.585 32.2412H213.83L152.606 191.686L150.673 191.327V32.2412H93.9146C83.3293 32.2412 73.4544 33.6045 64.5143 36.3204C55.5816 39.0341 47.8136 43.0982 41.1963 48.5051C34.59 53.9032 29.5793 60.4224 25.9297 68.3049C22.2886 76.1688 20.4551 85.1824 20.4551 95.3673C20.4551 103.526 21.6039 110.49 23.8614 116.062C26.1578 121.73 28.6723 126.463 31.3968 130.276C34.5735 134.53 38.4294 138.112 42.5052 140.794L43.2913 141.312L12.3684 195.137H72.7044L99.3219 150.85V195.137H201.783ZM99.3219 113.315H95.5384C89.135 113.315 83.3734 111.91 78.772 109.041C73.9957 106.063 71.5742 100.88 71.5742 93.9932C71.5742 87.0811 74.0113 82.1605 78.7413 78.9652L78.7565 78.955L78.772 78.9453C83.3707 76.0776 88.8991 74.6714 95.5384 74.6714H99.3219V113.315ZM143.858 190.266H133.044V49.7081H143.858V190.266ZM295.489 189.724L247.473 66.0525L242.834 54.6014H252.112L256.751 66.0525L303.607 186.518L304.767 189.724H295.489ZM246.546 66.428L294.804 190.724H306.192L304.544 186.167L304.539 186.156L257.683 65.69L252.786 53.6014H241.35L246.541 66.4145L246.546 66.428ZM98.3219 112.315V75.6714H95.5384C89.0435 75.6714 83.7084 77.0456 79.3011 79.7938C74.8938 82.7711 72.5742 87.3516 72.5742 93.9932C72.5742 100.635 74.8938 105.444 79.3011 108.193C83.7084 110.941 89.2754 112.315 95.5384 112.315H98.3219ZM142.858 189.266V50.7081H134.044V189.266H142.858Z" fill="black"/>
</g>
<g filter="url(#filter4_d)">
<path d="M260.049 25.8159H219.92L158.45 185.902V25.8159H100.692C90.0218 25.8159 80.0475 27.19 71.001 29.9383C61.9545 32.6866 54.0678 36.809 47.3409 42.3055C40.6141 47.802 35.5109 54.4436 31.7996 62.4594C28.0882 70.4752 26.2325 79.636 26.2325 89.942C26.2325 98.1868 27.3923 105.286 29.7119 111.012C32.0315 116.738 34.5831 121.547 37.3666 125.44C40.6141 129.792 44.5574 133.456 48.7327 136.204L17.418 190.712H80.0475L105.099 149.03V190.712H156.595H158.45H209.25L221.776 157.732L239.869 110.554L258.194 157.732L270.719 190.712H323.375L260.049 25.8159ZM105.099 106.89H102.316C96.0528 106.89 90.4857 105.516 86.0784 102.767C81.6712 100.019 79.3516 95.2095 79.3516 88.5679C79.3516 81.9263 81.6712 77.3458 86.0784 74.3685C90.4857 71.6203 95.8208 70.2461 102.316 70.2461H105.099V106.89ZM149.636 183.841H140.821V45.2828H149.636V183.841ZM254.25 60.6272L251.931 54.9017L249.611 49.1761H258.889L261.209 54.9017L263.529 60.6272L310.385 181.093L311.545 184.299H302.266L278.258 122.463L254.25 60.6272Z" fill="#D6D269"/>
</g>
<g filter="url(#filter5_d)">
<path fill-rule="evenodd" clip-rule="evenodd" d="M258.194 157.732L270.719 190.712H323.375L260.049 25.8159H219.92L158.45 185.902V25.8159H100.692C90.0218 25.8159 80.0475 27.19 71.001 29.9383C61.9545 32.6866 54.0678 36.809 47.3409 42.3055C40.6141 47.802 35.5109 54.4436 31.7996 62.4594C28.0882 70.4752 26.2325 79.636 26.2325 89.942C26.2325 98.1868 27.3923 105.286 29.7119 111.012C32.0315 116.738 34.5831 121.547 37.3666 125.44C40.6141 129.792 44.5574 133.456 48.7327 136.204C48.7326 136.204 48.7327 136.204 48.7327 136.204L17.418 190.712H80.0475L105.099 149.03V190.712H209.25L221.776 157.732L239.869 110.554L258.194 157.732ZM208.56 189.712L220.842 157.374L239.863 107.777L259.128 157.377L271.409 189.712H321.919L259.362 26.8159H220.607L159.384 186.261L157.45 185.902V26.8159H100.692C90.1067 26.8159 80.2317 28.1792 71.2917 30.8951C62.3589 33.6088 54.5909 37.6729 47.9737 43.0799C41.3674 48.4779 36.3567 54.9971 32.707 62.8796C29.0659 70.7435 27.2325 79.7571 27.2325 89.942C27.2325 98.1008 28.3812 105.064 30.6387 110.637C32.9352 116.305 35.4497 121.038 38.1741 124.85C41.3509 129.105 45.2067 132.686 49.2825 135.369L50.0686 135.887L19.1458 189.712H79.4818L106.099 145.425V189.712H208.56ZM106.099 107.89H102.316C95.9123 107.89 90.1507 106.485 85.5493 103.616C80.773 100.637 78.3516 95.4542 78.3516 88.5679C78.3516 81.6558 80.7887 76.7352 85.5187 73.5399L85.5338 73.5297L85.5493 73.52C90.148 70.6524 95.6764 69.2461 102.316 69.2461H106.099V107.89ZM150.636 184.841H139.821V44.2828H150.636V184.841ZM302.266 184.299L254.25 60.6272L249.611 49.1761H258.889L263.529 60.6272L310.385 181.093L311.545 184.299H302.266ZM253.323 61.0027L301.582 185.299H312.97L311.321 180.741L311.317 180.73L264.461 60.2647L259.563 48.1761H248.127L253.318 60.9892L253.323 61.0027ZM105.099 106.89V70.2461H102.316C95.8208 70.2461 90.4857 71.6203 86.0784 74.3685C81.6712 77.3458 79.3516 81.9263 79.3516 88.5679C79.3516 95.2095 81.6712 100.019 86.0784 102.767C90.4857 105.516 96.0528 106.89 102.316 106.89H105.099ZM149.636 183.841V45.2828H140.821V183.841H149.636Z" fill="black"/>
</g>
<g filter="url(#filter6_d)">
<path d="M266.688 20.8628H226.559L165.089 180.949V20.8628H107.331C96.6604 20.8628 86.6861 22.2369 77.6396 24.9852C68.5932 27.7334 60.7065 31.8558 53.9796 37.3524C47.2527 42.8489 42.1496 49.4905 38.4382 57.5063C34.7268 65.522 32.8712 74.6829 32.8712 84.9889C32.8712 93.2337 34.031 100.333 36.3506 106.059C38.6702 111.784 41.2218 116.594 44.0053 120.487C47.2527 124.839 51.1961 128.503 55.3714 131.251L24.0566 185.758H86.6861L111.738 144.077V185.758H163.233H165.089H215.888L228.414 152.779L246.507 105.601L264.832 152.779L277.358 185.758H330.013L266.688 20.8628ZM111.738 101.937H108.954C102.691 101.937 97.1244 100.562 92.7171 97.8141C88.3099 95.0659 85.9902 90.2564 85.9902 83.6148C85.9902 76.9731 88.3099 72.3927 92.7171 69.4154C97.1244 66.6672 102.459 65.293 108.954 65.293H111.738V101.937ZM156.274 178.888H147.46V40.3296H156.274V178.888ZM260.889 55.6741L258.569 49.9486L256.25 44.223H265.528L267.848 49.9486L270.167 55.6741L317.023 176.14L318.183 179.346H308.905L284.897 117.51L260.889 55.6741Z" fill="#1CA199"/>
</g>
<g filter="url(#filter7_d)">
<path fill-rule="evenodd" clip-rule="evenodd" d="M264.832 152.779L277.358 185.758H330.013L266.688 20.8628H226.559L165.089 180.949V20.8628H107.331C96.6605 20.8628 86.6861 22.2369 77.6396 24.9852C68.5932 27.7334 60.7065 31.8558 53.9796 37.3524C47.2527 42.8489 42.1496 49.4905 38.4382 57.5063C34.7268 65.522 32.8712 74.6829 32.8712 84.9889C32.8712 93.2337 34.031 100.333 36.3506 106.059C38.6702 111.784 41.2218 116.594 44.0053 120.487C47.2527 124.839 51.1961 128.503 55.3713 131.251C55.3713 131.251 55.3713 131.251 55.3713 131.251L24.0566 185.758H86.6861L111.738 144.077V185.758H215.888L228.414 152.779L246.507 105.601L264.832 152.779ZM215.199 184.758L227.481 152.421L246.501 102.824L265.767 152.424L278.048 184.758H328.558L266.001 21.8628H227.246L166.022 181.308L164.089 180.949V21.8628H107.331C96.7453 21.8628 86.8704 23.2261 77.9303 25.942C68.9976 28.6557 61.2296 32.7198 54.6124 38.1267C48.0061 43.5247 42.9953 50.044 39.3457 57.9264C35.7046 65.7903 33.8712 74.804 33.8712 84.9889C33.8712 93.1477 35.0199 100.111 37.2774 105.683C39.5739 111.352 42.0883 116.085 44.8128 119.897C47.9895 124.152 51.8454 127.733 55.9212 130.416L56.7073 130.933L25.7844 184.758H86.1204L112.738 140.471V184.758H215.199ZM112.738 102.937H108.954C102.551 102.937 96.7894 101.532 92.188 98.6627C87.4117 95.6843 84.9902 90.5011 84.9902 83.6148C84.9902 76.7027 87.4273 71.7821 92.1573 68.5868L92.1725 68.5765L92.188 68.5669C96.7867 65.6992 102.315 64.293 108.954 64.293H112.738V102.937ZM157.274 179.888H146.46V39.3296H157.274V179.888ZM308.905 179.346L260.889 55.6741L256.25 44.223H265.528L270.167 55.6741L317.023 176.14L318.183 179.346H308.905ZM259.962 56.0496L308.22 180.346H319.608L317.96 175.788L317.955 175.777L271.099 55.3116L266.202 43.223H254.766L259.957 56.036L259.962 56.0496ZM111.738 101.937V65.293H108.954C102.459 65.293 97.1244 66.6672 92.7171 69.4154C88.3099 72.3927 85.9902 76.9731 85.9902 83.6148C85.9902 90.2564 88.3099 95.0659 92.7171 97.8141C97.1244 100.562 102.691 101.937 108.954 101.937H111.738ZM156.274 178.888V40.3296H147.46V178.888H156.274Z" fill="black"/>
</g>
<g filter="url(#filter8_d)">
<path d="M273.147 16.3413H233.018L171.548 176.428V16.3413H113.79C103.119 16.3413 93.1451 17.7154 84.0986 20.4637C75.0522 23.212 67.1655 27.3344 60.4386 32.8309C53.7117 38.3274 48.6086 44.969 44.8972 52.9848C41.1858 61.0006 39.3301 70.1614 39.3301 80.4674C39.3301 88.7122 40.49 95.8119 42.8096 101.537C45.1292 107.263 47.6807 112.072 50.4643 115.966C53.7117 120.317 57.6551 123.982 61.8304 126.73L30.5156 181.237H93.1451L118.197 139.555V181.237H169.692H171.548H222.347L234.873 148.258L252.966 101.079L271.291 148.258L283.817 181.237H336.472L273.147 16.3413ZM118.197 97.415H115.413C109.15 97.415 103.583 96.0409 99.1761 93.2926C94.7688 90.5444 92.4492 85.7349 92.4492 79.0933C92.4492 72.4516 94.7688 67.8712 99.1761 64.8939C103.583 62.1457 108.918 60.7715 115.413 60.7715H118.197V97.415ZM162.733 174.366H153.919V35.8082H162.733V174.366ZM267.348 51.1526L265.028 45.4271L262.709 39.7015H271.987L274.307 45.4271L276.626 51.1526L323.482 171.618L324.642 174.824H315.364L291.356 112.989L267.348 51.1526Z" fill="#D6D269"/>
</g>
<g filter="url(#filter9_d)">
<path fill-rule="evenodd" clip-rule="evenodd" d="M271.291 148.258L283.817 181.237H336.472L273.147 16.3413H233.018L171.548 176.428V16.3413H113.79C103.119 16.3413 93.1451 17.7154 84.0986 20.4637C75.0522 23.212 67.1655 27.3344 60.4386 32.8309C53.7117 38.3274 48.6086 44.969 44.8972 52.9848C41.1858 61.0006 39.3301 70.1614 39.3301 80.4674C39.3301 88.7122 40.49 95.8119 42.8096 101.537C45.1292 107.263 47.6807 112.072 50.4643 115.966C53.7117 120.317 57.655 123.982 61.8303 126.73C61.8303 126.73 61.8303 126.73 61.8303 126.73L30.5156 181.237H93.1451L118.197 139.555V181.237H222.347L234.873 148.258L252.966 101.079L271.291 148.258ZM221.658 180.237L233.94 147.9L252.96 98.3021L272.226 147.903L284.507 180.237H335.017L272.46 17.3413H233.705L172.481 176.786L170.548 176.428V17.3413H113.79C103.204 17.3413 93.3294 18.7046 84.3893 21.4205C75.4566 24.1342 67.6886 28.1983 61.0713 33.6052C54.465 39.0033 49.4543 45.5225 45.8047 53.405C42.1636 61.2689 40.3301 70.2825 40.3301 80.4674C40.3301 88.6262 41.4789 95.5897 43.7364 101.162C46.0328 106.83 48.5473 111.563 51.2718 115.376C54.4485 119.63 58.3044 123.212 62.3802 125.895L63.1663 126.412L32.2434 180.237H92.5794L119.197 135.95V180.237H221.658ZM119.197 98.415H115.413C109.01 98.415 103.248 97.0105 98.647 94.1412C93.8707 91.1628 91.4492 85.9796 91.4492 79.0933C91.4492 72.1812 93.8863 67.2606 98.6163 64.0653L98.6315 64.0551L98.647 64.0454C103.246 61.1777 108.774 59.7715 115.413 59.7715H119.197V98.415ZM163.733 175.366H152.919V34.8082H163.733V175.366ZM315.364 174.824L267.348 51.1526L262.709 39.7015H271.987L276.626 51.1526L323.482 171.618L324.642 174.824H315.364ZM266.421 51.5281L314.679 175.824H326.067L324.419 171.267L324.414 171.256L277.558 50.7901L272.661 38.7015H261.225L266.416 51.5146L266.421 51.5281ZM118.197 97.415V60.7715H115.413C108.918 60.7715 103.583 62.1457 99.1761 64.8939C94.7688 67.8712 92.4492 72.4516 92.4492 79.0933C92.4492 85.7349 94.7688 90.5444 99.1761 93.2926C103.583 96.0409 109.15 97.415 115.413 97.415H118.197ZM162.733 174.366V35.8082H153.919V174.366H162.733Z" fill="black"/>
</g>
<g filter="url(#filter10_d)">
<path d="M279.788 11.3882H239.658L178.189 171.474V11.3882H120.43C109.76 11.3882 99.7857 12.7623 90.7393 15.5106C81.6928 18.2588 73.8061 22.3812 67.0792 27.8778C60.3524 33.3743 55.2492 40.0159 51.5378 48.0317C47.8265 56.0474 45.9708 65.2083 45.9708 75.5143C45.9708 83.7591 47.1306 90.8588 49.4502 96.5843C51.7698 102.31 54.3214 107.119 57.1049 111.013C60.3524 115.364 64.2957 119.028 68.471 121.777L37.1562 176.284H99.7857L124.838 134.602V176.284H176.333H178.189H228.988L241.514 143.305L259.607 96.1263L277.932 143.305L290.458 176.284H343.113L279.788 11.3882ZM124.838 92.4619H122.054C115.791 92.4619 110.224 91.0878 105.817 88.3395C101.409 85.5913 99.0899 80.7818 99.0899 74.1402C99.0899 67.4985 101.409 62.9181 105.817 59.9408C110.224 57.1925 115.559 55.8184 122.054 55.8184H124.838V92.4619ZM169.374 169.413H160.56V30.855H169.374V169.413ZM273.988 46.1995L271.669 40.474L269.349 34.7484H278.628L280.947 40.474L283.267 46.1995L330.123 166.665L331.283 169.871H322.004L297.996 108.035L273.988 46.1995Z" fill="#1CA199"/>
</g>
<g filter="url(#filter11_d)">
<path fill-rule="evenodd" clip-rule="evenodd" d="M277.932 143.305L290.458 176.284H343.113L279.788 11.3882H239.658L178.189 171.474V11.3882H120.43C109.76 11.3882 99.7857 12.7623 90.7393 15.5106C81.6928 18.2588 73.8061 22.3812 67.0792 27.8778C60.3524 33.3743 55.2492 40.0159 51.5378 48.0317C47.8265 56.0474 45.9708 65.2083 45.9708 75.5143C45.9708 83.7591 47.1306 90.8587 49.4502 96.5843C51.7698 102.31 54.3214 107.119 57.1049 111.013C60.3523 115.364 64.2957 119.028 68.4709 121.777C68.4709 121.777 68.471 121.777 68.4709 121.777L37.1562 176.284H99.7857L124.838 134.602V176.284H228.988L241.514 143.305L259.607 96.1263L277.932 143.305ZM228.298 175.284L240.58 142.947L259.601 93.349L278.867 142.95L291.148 175.284H341.658L279.1 12.3882H240.345L179.122 171.833L177.189 171.474V12.3882H120.43C109.845 12.3882 99.97 13.7515 91.0299 16.4674C82.0972 19.1811 74.3292 23.2452 67.712 28.6521C61.1057 34.0501 56.0949 40.5694 52.4453 48.4518C48.8042 56.3157 46.9708 65.3294 46.9708 75.5143C46.9708 83.6731 48.1195 90.6366 50.377 96.2088C52.6735 101.877 55.1879 106.61 57.9124 110.423C61.0892 114.677 64.945 118.259 69.0208 120.941L69.8069 121.459L38.884 175.284H99.22L125.838 130.997V175.284H228.298ZM125.838 93.4619H122.054C115.651 93.4619 109.889 92.0574 105.288 89.1881C100.511 86.2097 98.0899 81.0265 98.0899 74.1402C98.0899 67.2281 100.527 62.3075 105.257 59.1122L105.272 59.1019L105.288 59.0923C109.886 56.2246 115.415 54.8184 122.054 54.8184H125.838V93.4619ZM170.374 170.413H159.56V29.855H170.374V170.413ZM322.004 169.871L273.988 46.1995L269.349 34.7484H278.628L283.267 46.1995L330.123 166.665L331.283 169.871H322.004ZM273.062 46.575L321.32 170.871H332.708L331.059 166.314L331.055 166.302L284.199 45.837L279.302 33.7484H267.865L273.056 46.5614L273.062 46.575ZM124.838 92.4619V55.8184H122.054C115.559 55.8184 110.224 57.1925 105.817 59.9408C101.409 62.9181 99.0899 67.4985 99.0899 74.1402C99.0899 80.7818 101.409 85.5913 105.817 88.3395C110.224 91.0878 115.791 92.4619 122.054 92.4619H124.838ZM169.374 169.413V30.855H160.56V169.413H169.374Z" fill="black"/>
</g>
<g filter="url(#filter12_d)">
<path d="M286.565 5.96338H246.436L184.966 166.05V5.96338H127.208C116.537 5.96338 106.563 7.33751 97.5166 10.0858C88.4701 12.834 80.5834 16.9564 73.8566 22.4529C67.1297 27.9495 62.0266 34.5911 58.3152 42.6069C54.6038 50.6226 52.7481 59.7835 52.7481 70.0895C52.7481 78.3343 53.9079 85.4339 56.2275 91.1595C58.5471 96.885 61.0987 101.694 63.8822 105.588C67.1297 109.939 71.073 113.604 75.2483 116.352L43.9336 170.859H106.563L131.615 129.177V170.859H183.11H184.966H235.765L248.291 137.88L266.384 90.7014L284.709 137.88L297.235 170.859H349.89L286.565 5.96338ZM131.615 87.0371H128.831C122.568 87.0371 117.001 85.663 112.594 82.9147C108.187 80.1664 105.867 75.357 105.867 68.7154C105.867 62.0737 108.187 57.4933 112.594 54.516C117.001 51.7677 122.336 50.3936 128.831 50.3936H131.615V87.0371ZM176.151 163.988H167.337V25.4302H176.151V163.988ZM280.766 40.7747L278.446 35.0491L276.127 29.3236H285.405L287.725 35.0491L290.044 40.7747L336.9 161.24L338.06 164.446H328.782L304.774 102.611L280.766 40.7747Z" fill="#D6D269"/>
</g>
<g filter="url(#filter13_d)">
<path fill-rule="evenodd" clip-rule="evenodd" d="M284.709 137.88L297.235 170.859H349.89L286.565 5.96338H246.436L184.966 166.05V5.96338H127.208C116.537 5.96338 106.563 7.33751 97.5166 10.0858C88.4701 12.834 80.5834 16.9564 73.8566 22.4529C67.1297 27.9495 62.0266 34.5911 58.3152 42.6069C54.6038 50.6226 52.7481 59.7835 52.7481 70.0895C52.7481 78.3343 53.9079 85.4339 56.2275 91.1595C58.5471 96.885 61.0987 101.694 63.8822 105.588C67.1297 109.939 71.073 113.604 75.2483 116.352C75.2483 116.352 75.2483 116.352 75.2483 116.352L43.9336 170.859H106.563L131.615 129.177V170.859H235.765L248.291 137.88L266.384 90.7014L284.709 137.88ZM235.076 169.859L247.358 137.522L266.378 87.9242L285.644 137.525L297.925 169.859H348.435L285.878 6.96338H247.123L185.899 166.408L183.966 166.05V6.96338H127.208C116.622 6.96338 106.747 8.32666 97.8073 11.0426C88.8745 13.7563 81.1065 17.8204 74.4893 23.2273C67.883 28.6253 62.8723 35.1446 59.2226 43.027C55.5816 50.8909 53.7481 59.9046 53.7481 70.0895C53.7481 78.2483 54.8969 85.2118 57.1544 90.784C59.4508 96.4524 61.9653 101.185 64.6898 104.998C67.8665 109.253 71.7223 112.834 75.7981 115.517L76.5842 116.034L45.6614 169.859H105.997L132.615 125.572V169.859H235.076ZM132.615 88.0371H128.831C122.428 88.0371 116.666 86.6326 112.065 83.7633C107.289 80.7849 104.867 75.6017 104.867 68.7154C104.867 61.8033 107.304 56.8827 112.034 53.6874L112.049 53.6771L112.065 53.6675C116.664 50.7998 122.192 49.3936 128.831 49.3936H132.615V88.0371ZM177.151 164.988H166.337V24.4302H177.151V164.988ZM328.782 164.446L280.766 40.7747L276.127 29.3236H285.405L290.044 40.7747L336.9 161.24L338.06 164.446H328.782ZM279.839 41.1502L328.097 165.446H339.485L337.837 160.889L337.832 160.878L290.976 40.4122L286.079 28.3236H274.643L279.834 41.1366L279.839 41.1502ZM131.615 87.0371V50.3936H128.831C122.336 50.3936 117.001 51.7677 112.594 54.516C108.187 57.4933 105.867 62.0737 105.867 68.7154C105.867 75.357 108.187 80.1665 112.594 82.9147C117.001 85.663 122.568 87.0371 128.831 87.0371H131.615ZM176.151 163.988V25.4302H167.337V163.988H176.151Z" fill="black"/>
</g>
<g filter="url(#filter14_i)">
<path d="M293.204 1.01074H253.074L191.605 161.097V1.01074H133.846C123.176 1.01074 113.202 2.38487 104.155 5.13314C95.1088 7.8814 87.2221 12.0038 80.4952 17.5003C73.7684 22.9968 68.6652 29.6385 64.9539 37.6542C61.2425 45.67 59.3868 54.8309 59.3868 65.1368C59.3868 73.3816 60.5466 80.4813 62.8662 86.2069C65.1858 91.9324 67.7374 96.7419 70.5209 100.635C73.7684 104.987 77.7117 108.651 81.887 111.399L50.5723 165.906H113.202L138.254 124.224V165.906H189.749H191.605H242.404L254.93 132.927L273.023 85.7488L291.348 132.927L303.874 165.906H356.529L293.204 1.01074ZM138.254 82.0845H135.47C129.207 82.0845 123.64 80.7103 119.233 77.9621C114.825 75.2138 112.506 70.4044 112.506 63.7627C112.506 57.1211 114.825 52.5407 119.233 49.5634C123.64 46.8151 128.975 45.441 135.47 45.441H138.254V82.0845ZM182.79 159.036H173.976V20.4776H182.79V159.036ZM287.405 35.8221L285.085 30.0965L282.765 24.371H292.044L294.363 30.0965L296.683 35.8221L343.539 156.288L344.699 159.494H335.42L311.412 97.6579L287.405 35.8221Z" fill="#1CA199"/>
</g>
<path fill-rule="evenodd" clip-rule="evenodd" d="M103.86 4.16611C113.014 1.38512 123.089 0 133.845 0H192.615V155.641L252.378 0H293.898L357.999 166.917H303.174L290.404 133.293L290.401 133.286L273.028 88.5575L255.875 133.286L255.873 133.289L243.101 166.917H137.241V127.87L113.773 166.917H48.8242L80.5403 111.711C76.5609 108.965 72.8215 105.41 69.7087 101.239L69.7026 101.231L69.6965 101.222C66.8557 97.2487 64.2686 92.3648 61.9273 86.5857C59.545 80.7053 58.374 73.4682 58.374 65.1366C58.374 54.7084 60.2522 45.3989 64.0345 37.2298C67.8083 29.0794 73.0048 22.3141 79.8536 16.7179C86.6914 11.1308 94.6981 6.94935 103.86 4.16611ZM133.845 2.021C123.261 2.021 113.387 3.38414 104.448 6.09967C95.5171 8.81295 87.7505 12.8763 81.1345 18.2822C74.5296 23.6791 69.5198 30.1971 65.8708 38.0782C62.2304 45.9406 60.3971 54.9528 60.3971 65.1366C60.3971 73.2946 61.5458 80.2568 63.8027 85.8275C66.0989 91.4953 68.613 96.2275 71.3368 100.039C74.5128 104.293 78.3677 107.873 82.4424 110.555L83.2366 111.078L52.3179 164.896H112.628L139.264 120.578V164.896H241.705L253.983 132.569L253.984 132.566L273.016 82.9396L292.291 132.565L304.571 164.896H355.056L292.507 2.021H253.769L192.548 161.459L190.592 161.097V2.021H133.845ZM172.963 19.4669H183.8V160.046H172.963V19.4669ZM174.986 21.4879V158.025H181.777V21.4879H174.986ZM281.263 23.3602H292.724L297.622 35.4493L344.481 155.921L344.485 155.933L346.139 160.504H334.727L286.466 36.2009L286.46 36.1872L281.263 23.3602ZM284.265 25.3812L288.344 35.4496L336.112 158.483H343.257L342.595 156.653L342.587 156.631L295.744 36.2009L295.739 36.1878L291.361 25.3812H284.265ZM119.783 50.4105C115.712 53.1675 113.516 57.4016 113.516 63.7625C113.516 70.1573 115.733 74.5891 119.767 77.1046C123.978 79.7304 129.348 81.0737 135.469 81.0737H137.241V46.4512H135.469C129.128 46.4512 123.994 47.7895 119.783 50.4105ZM118.696 48.7059C123.297 45.8369 128.828 44.4302 135.469 44.4302H139.264V83.0947H135.469C129.064 83.0947 123.3 81.6898 118.696 78.819C113.915 75.838 111.493 70.6509 111.493 63.7625C111.493 56.848 113.931 51.9239 118.665 48.7261L118.68 48.7157L118.696 48.7059Z" fill="#141D1C"/>
<g filter="url(#filter15_i)">
<path d="M78.8208 266.516L78.8744 268.944C78.8744 269.958 78.7046 270.82 78.3649 271.532C78.0251 272.243 77.4709 272.875 76.7021 273.426C75.9511 273.977 74.9141 274.502 73.591 275L72.4914 273.079V272.759C73.5999 272.19 74.3777 271.629 74.8247 271.078C75.2896 270.509 75.522 269.78 75.522 268.89V266.863L75.3611 257.658L72.5182 257.738L72.25 257.471L72.4377 254.99H79.0085L78.8208 266.516Z" fill="#D7D369"/>
<path d="M96.4402 263.714L96.4134 265.982C96.4313 268.028 95.8323 269.611 94.6165 270.731C93.4007 271.852 91.6574 272.412 89.3867 272.412C87.2053 272.412 85.5425 271.87 84.3982 270.785C83.2539 269.7 82.7086 268.143 82.7622 266.116L82.789 263.634L82.7086 254.99H86.3561L86.1683 265.635C86.1504 266.934 86.4276 267.894 86.9997 268.517C87.5719 269.139 88.439 269.451 89.6012 269.451C91.9256 269.451 93.0788 268.241 93.0609 265.822L92.8732 254.99H96.5743L96.4402 263.714Z" fill="#D7D369"/>
<path d="M114.535 266.863L114.669 272.172H110.754L103.7 260.54H103.486L103.459 266.249L103.566 272.172H100.267L100.455 267.103L100.294 254.99H104.183L111.236 266.623H111.478L111.397 255.15L114.75 254.937L114.535 266.863Z" fill="#D7D369"/>
<path d="M122.402 266.729L122.563 272.172H118.915L119.103 267.049L118.915 254.99H122.616L122.402 266.729Z" fill="#D7D369"/>
<path d="M133.428 254.75C135.86 254.75 137.728 255.488 139.033 256.964C140.357 258.423 141.018 260.504 141.018 263.208C141.018 266.16 140.303 268.437 138.873 270.038C137.442 271.638 135.422 272.439 132.811 272.439C130.398 272.439 128.529 271.692 127.206 270.198C125.901 268.686 125.248 266.551 125.248 263.794C125.248 260.895 125.954 258.663 127.367 257.098C128.797 255.533 130.818 254.75 133.428 254.75ZM133.106 257.658C131.676 257.658 130.639 258.103 129.995 258.992C129.352 259.881 129.03 261.331 129.03 263.341C129.03 265.635 129.343 267.272 129.968 268.25C130.612 269.228 131.667 269.717 133.133 269.717C134.564 269.717 135.601 269.273 136.244 268.383C136.888 267.476 137.21 266 137.21 263.955C137.21 261.696 136.888 260.086 136.244 259.125C135.618 258.147 134.572 257.658 133.106 257.658Z" fill="#D7D369"/>
<path d="M152.757 265.342C154.152 267.547 155.537 269.54 156.914 271.318L156.86 271.718C155.698 272.127 154.509 272.368 153.293 272.439L152.918 272.145C151.631 269.94 150.585 268.019 149.78 266.382H147.178V266.729L147.339 272.172H143.692L143.88 267.049L143.692 254.99L150.316 254.963C152.122 254.963 153.517 255.408 154.5 256.297C155.484 257.169 155.975 258.423 155.975 260.059C155.975 261.162 155.689 262.176 155.117 263.101C154.563 264.008 153.776 264.755 152.757 265.342ZM147.232 263.581L149.887 263.688C151.407 263.172 152.167 262.078 152.167 260.406C152.167 259.499 151.917 258.823 151.416 258.378C150.933 257.916 150.182 257.667 149.163 257.631L147.339 257.738L147.232 263.581Z" fill="#D7D369"/>
<path d="M170.517 254.883C173.02 254.883 174.942 255.577 176.283 256.964C177.624 258.352 178.295 260.344 178.295 262.941C178.295 265.982 177.544 268.312 176.042 269.931C174.54 271.549 172.395 272.359 169.605 272.359C168.765 272.359 167.755 272.341 166.575 272.305C165.412 272.27 164.411 272.225 163.571 272.172L163.759 267.049L163.571 254.99L170.517 254.883ZM170.249 269.557C173.092 269.557 174.513 267.627 174.513 263.768C174.513 261.669 174.165 260.148 173.467 259.206C172.788 258.245 171.715 257.765 170.249 257.765C169.301 257.765 168.291 257.809 167.218 257.898L167.057 266.729L167.138 269.371C168.389 269.495 169.426 269.557 170.249 269.557Z" fill="#D7D369"/>
<path d="M191.876 269.184L192.091 269.477L191.849 272.172H181.014L181.202 267.049L181.014 254.99H191.956L192.171 255.284L191.903 257.978L187.773 257.845L184.662 257.872L184.581 262.007L187.558 262.06L190.374 261.98L190.589 262.247L190.347 264.942L187.29 264.862L184.527 264.888L184.501 266.729L184.581 269.317L187.612 269.344L191.876 269.184Z" fill="#D7D369"/>
<path d="M202.464 272.172H198.119L192.836 254.99H196.537L196.966 257.258L200.238 268.81H200.479L204.234 257.445L204.69 254.99H208.284L202.464 272.172Z" fill="#D7D369"/>
<path d="M221.158 269.184L221.372 269.477L221.131 272.172H210.296L210.483 267.049L210.296 254.99H221.238L221.453 255.284L221.184 257.978L217.054 257.845L213.943 257.872L213.863 262.007L216.84 262.06L219.656 261.98L219.87 262.247L219.629 264.942L216.571 264.862L213.809 264.888L213.782 266.729L213.863 269.317L216.893 269.344L221.158 269.184Z" fill="#D7D369"/>
<path d="M233.408 269.477L233.167 272.172H223.834L224.022 267.049L223.834 254.99H227.535L227.32 266.729L227.401 269.184H233.194L233.408 269.477Z" fill="#D7D369"/>
<path d="M241.545 254.75C243.976 254.75 245.845 255.488 247.15 256.964C248.473 258.423 249.135 260.504 249.135 263.208C249.135 266.16 248.419 268.437 246.989 270.038C245.559 271.638 243.538 272.439 240.928 272.439C238.514 272.439 236.646 271.692 235.322 270.198C234.017 268.686 233.365 266.551 233.365 263.794C233.365 260.895 234.071 258.663 235.483 257.098C236.914 255.533 238.934 254.75 241.545 254.75ZM241.223 257.658C239.792 257.658 238.755 258.103 238.112 258.992C237.468 259.881 237.146 261.331 237.146 263.341C237.146 265.635 237.459 267.272 238.085 268.25C238.729 269.228 239.783 269.717 241.25 269.717C242.68 269.717 243.717 269.273 244.361 268.383C245.004 267.476 245.326 266 245.326 263.955C245.326 261.696 245.004 260.086 244.361 259.125C243.735 258.147 242.689 257.658 241.223 257.658Z" fill="#D7D369"/>
<path d="M258.433 254.963C260.239 254.963 261.624 255.417 262.59 256.324C263.573 257.231 264.065 258.53 264.065 260.219C264.065 261.518 263.779 262.656 263.207 263.634C262.635 264.595 261.812 265.342 260.739 265.875C259.684 266.409 258.442 266.676 257.011 266.676H255.295V266.729L255.456 272.172H251.808L251.996 267.049L251.808 254.99L258.433 254.963ZM257.816 264.035C259.461 263.572 260.283 262.407 260.283 260.54C260.283 259.579 260.033 258.868 259.532 258.405C259.05 257.925 258.299 257.667 257.28 257.631L255.456 257.738L255.349 263.928L257.816 264.035Z" fill="#D7D369"/>
<path d="M277.494 269.184L277.709 269.477L277.468 272.172H266.632L266.82 267.049L266.632 254.99H277.575L277.789 255.284L277.521 257.978L273.391 257.845L270.28 257.872L270.199 262.007L273.176 262.06L275.992 261.98L276.207 262.247L275.966 264.942L272.908 264.862L270.146 264.888L270.119 266.729L270.199 269.317L273.23 269.344L277.494 269.184Z" fill="#D7D369"/>
<path d="M289.343 265.342C290.738 267.547 292.123 269.54 293.5 271.318L293.446 271.718C292.284 272.127 291.095 272.368 289.879 272.439L289.504 272.145C288.217 269.94 287.171 268.019 286.366 266.382H283.764V266.729L283.925 272.172H280.278L280.466 267.049L280.278 254.99L286.902 254.963C288.708 254.963 290.103 255.408 291.086 256.297C292.07 257.169 292.561 258.423 292.561 260.059C292.561 261.162 292.275 262.176 291.703 263.101C291.149 264.008 290.362 264.755 289.343 265.342ZM283.818 263.581L286.473 263.688C287.993 263.172 288.753 262.078 288.753 260.406C288.753 259.499 288.503 258.823 288.002 258.378C287.519 257.916 286.768 257.667 285.749 257.631L283.925 257.738L283.818 263.581Z" fill="#D7D369"/>
</g>
<g filter="url(#filter16_i)">
<path d="M63.1053 234.42C65.9244 238.811 68.4717 242.504 70.7474 245.498L70.6455 246.417C68.0642 247.268 65.33 247.796 62.443 248L61.6278 247.336C59.5899 243.525 57.8237 240.036 56.3293 236.871H51.9987L52.3044 247.438H44L44.4585 237.688L44 214.511L57.8577 214.459C61.424 214.459 64.1582 215.327 66.0602 217.063C67.9962 218.765 68.9642 221.215 68.9642 224.414C68.9642 226.422 68.4548 228.294 67.4358 230.03C66.4169 231.766 64.9734 233.229 63.1053 234.42ZM52.1516 230.643L56.584 230.847C57.8407 230.37 58.7578 229.673 59.3352 228.754C59.9465 227.835 60.2522 226.644 60.2522 225.18C60.2522 223.581 59.8277 222.406 58.9785 221.658C58.1634 220.875 56.8727 220.449 55.1065 220.381L52.3554 220.535L52.1516 230.643Z" fill="#1CA199"/>
<path d="M95.1727 240.7L95.6312 241.312L95.1218 247.438H73.4182L73.8767 237.688L73.4182 214.511H95.4274L95.886 215.123L95.3255 221.249L87.3268 220.943L81.7226 220.994L81.6207 227.58H86.9702L92.3196 227.426L92.7782 228.039L92.2687 234.165L86.4097 234.012H81.4678L81.4169 236.871L81.5188 240.955L86.9192 241.006L95.1727 240.7Z" fill="#1CA199"/>
<path d="M120.262 240.7L120.721 241.312L120.211 247.438H98.5078L98.9663 237.688L98.5078 214.511H120.517L120.976 215.123L120.415 221.249L112.416 220.943L106.812 220.994L106.71 227.58H112.06L117.409 227.426L117.868 228.039L117.358 234.165L111.499 234.012H106.557L106.507 236.871L106.608 240.955L112.009 241.006L120.262 240.7Z" fill="#1CA199"/>
<path d="M136.858 214.051C139.983 214.051 142.819 214.613 145.366 215.736L143.889 222.526L143.328 222.832C142.377 222.185 141.29 221.692 140.068 221.351C138.879 220.977 137.707 220.79 136.552 220.79C134.107 220.79 132.29 221.556 131.101 223.087C129.946 224.619 129.369 227.035 129.369 230.336C129.369 237.483 131.899 241.057 136.96 241.057C138.081 241.057 139.27 240.904 140.526 240.598C141.783 240.291 142.921 239.866 143.94 239.321L144.653 239.73L143.991 246.52C141.613 247.472 139.049 247.949 136.298 247.949C131.169 247.949 127.28 246.52 124.631 243.661C121.981 240.802 120.657 236.667 120.657 231.255C120.657 225.776 122.066 221.539 124.885 218.544C127.704 215.549 131.695 214.051 136.858 214.051Z" fill="#1CA199"/>
<path d="M169.496 240.7L169.955 241.312L169.445 247.438H147.742L148.2 237.688L147.742 214.511H169.751L170.209 215.123L169.649 221.249L161.65 220.943L156.046 220.994L155.944 227.58H161.294L166.643 227.426L167.102 228.039L166.592 234.165L160.733 234.012H155.791L155.74 236.871L155.842 240.955L161.243 241.006L169.496 240.7Z" fill="#1CA199"/>
<path d="M205.567 247.438H197.16L196.294 242.691L195.836 240.802L189.926 240.7L184.831 240.853L184.423 242.18L183.506 247.438H175.406L186.003 214.511H195.938L205.567 247.438ZM194.256 234.574L191.047 222.066H190.537L186.716 234.574L190.486 234.676L194.256 234.574Z" fill="#1CA199"/>
<path d="M227.389 234.42C230.208 238.811 232.755 242.504 235.031 245.498L234.929 246.417C232.348 247.268 229.614 247.796 226.726 248L225.911 247.336C223.873 243.525 222.107 240.036 220.613 236.871H216.282L216.588 247.438H208.284L208.742 237.688L208.284 214.511L222.141 214.459C225.708 214.459 228.442 215.327 230.344 217.063C232.28 218.765 233.248 221.215 233.248 224.414C233.248 226.422 232.738 228.294 231.719 230.03C230.7 231.766 229.257 233.229 227.389 234.42ZM216.435 230.643L220.868 230.847C222.124 230.37 223.041 229.673 223.619 228.754C224.23 227.835 224.536 226.644 224.536 225.18C224.536 223.581 224.111 222.406 223.262 221.658C222.447 220.875 221.156 220.449 219.39 220.381L216.639 220.535L216.435 230.643Z" fill="#1CA199"/>
<path d="M272.804 247.438H265.519L265.111 237.432L264.194 226.61H263.685L257.164 244.12H250.846L245.14 226.61H244.58L243.561 236.667L242.898 247.438H236.02L239.281 214.511H248.808L249.98 219.309L254.209 233.399H254.718L259.303 219.462L260.628 214.511H270.002L272.804 247.438Z" fill="#1CA199"/>
<path d="M298.726 240.7L299.184 241.312L298.675 247.438H276.971L277.43 237.688L276.971 214.511H298.98L299.439 215.123L298.878 221.249L290.88 220.943L285.275 220.994L285.174 227.58H290.523L295.872 227.426L296.331 228.039L295.822 234.165L289.963 234.012H285.021L284.97 236.871L285.072 240.955L290.472 241.006L298.726 240.7Z" fill="#1CA199"/>
<path d="M313.422 214C316.343 214 319.298 214.579 322.287 215.736L320.962 222.679L319.739 223.138C318.449 222.287 317.158 221.624 315.867 221.147C314.577 220.671 313.456 220.432 312.505 220.432C311.384 220.432 310.484 220.722 309.805 221.3C309.159 221.845 308.837 222.491 308.837 223.24C308.837 224.091 309.244 224.823 310.059 225.435C310.908 226.014 312.233 226.712 314.033 227.529C315.935 228.413 317.464 229.23 318.619 229.979C319.807 230.694 320.826 231.664 321.675 232.889C322.558 234.114 323 235.612 323 237.381C323 239.355 322.457 241.142 321.37 242.742C320.317 244.341 318.805 245.618 316.835 246.571C314.865 247.489 312.59 247.949 310.008 247.949C306.578 247.949 303.181 247.268 299.819 245.907L300.991 238.505L301.857 237.994C303.283 239.185 304.829 240.121 306.493 240.802C308.191 241.448 309.652 241.772 310.875 241.772C312.165 241.772 313.133 241.482 313.779 240.904C314.458 240.325 314.797 239.645 314.797 238.862C314.797 237.943 314.373 237.177 313.524 236.565C312.675 235.952 311.35 235.237 309.55 234.42C307.716 233.57 306.204 232.787 305.016 232.072C303.861 231.323 302.859 230.336 302.01 229.111C301.161 227.886 300.736 226.388 300.736 224.619C300.736 222.611 301.262 220.807 302.315 219.207C303.402 217.574 304.897 216.297 306.799 215.378C308.735 214.459 310.942 214 313.422 214Z" fill="#1CA199"/>
</g>
<defs>
<filter id="filter0_d" x="0" y="36.1934" width="313.957" height="172.896" filterUnits="userSpaceOnUse" color-interpolation-filters="sRGB">
<feFlood flood-opacity="0" result="BackgroundImageFix"/>
<feColorMatrix in="SourceAlpha" type="matrix" values="0 0 0 0 0 0 0 0 0 0 0 0 0 0 0 0 0 0 127 0"/>
<feOffset dy="4"/>
<feGaussianBlur stdDeviation="2"/>
<feColorMatrix type="matrix" values="0 0 0 0 0 0 0 0 0 0 0 0 0 0 0 0 0 0 0.5 0"/>
<feBlend mode="normal" in2="BackgroundImageFix" result="effect1_dropShadow"/>
<feBlend mode="normal" in="SourceGraphic" in2="effect1_dropShadow" result="shape"/>
</filter>
<filter id="filter1_d" x="0" y="36.1934" width="313.957" height="172.896" filterUnits="userSpaceOnUse" color-interpolation-filters="sRGB">
<feFlood flood-opacity="0" result="BackgroundImageFix"/>
<feColorMatrix in="SourceAlpha" type="matrix" values="0 0 0 0 0 0 0 0 0 0 0 0 0 0 0 0 0 0 127 0"/>
<feOffset dy="4"/>
<feGaussianBlur stdDeviation="2"/>
<feColorMatrix type="matrix" values="0 0 0 0 0 0 0 0 0 0 0 0 0 0 0 0 0 0 0.5 0"/>
<feBlend mode="normal" in2="BackgroundImageFix" result="effect1_dropShadow"/>
<feBlend mode="normal" in="SourceGraphic" in2="effect1_dropShadow" result="shape"/>
</filter>
<filter id="filter2_d" x="6.64062" y="31.2412" width="313.957" height="172.896" filterUnits="userSpaceOnUse" color-interpolation-filters="sRGB">
<feFlood flood-opacity="0" result="BackgroundImageFix"/>
<feColorMatrix in="SourceAlpha" type="matrix" values="0 0 0 0 0 0 0 0 0 0 0 0 0 0 0 0 0 0 127 0"/>
<feOffset dy="4"/>
<feGaussianBlur stdDeviation="2"/>
<feColorMatrix type="matrix" values="0 0 0 0 0 0 0 0 0 0 0 0 0 0 0 0 0 0 0.5 0"/>
<feBlend mode="normal" in2="BackgroundImageFix" result="effect1_dropShadow"/>
<feBlend mode="normal" in="SourceGraphic" in2="effect1_dropShadow" result="shape"/>
</filter>
<filter id="filter3_d" x="6.64062" y="31.2412" width="313.957" height="172.896" filterUnits="userSpaceOnUse" color-interpolation-filters="sRGB">
<feFlood flood-opacity="0" result="BackgroundImageFix"/>
<feColorMatrix in="SourceAlpha" type="matrix" values="0 0 0 0 0 0 0 0 0 0 0 0 0 0 0 0 0 0 127 0"/>
<feOffset dy="4"/>
<feGaussianBlur stdDeviation="2"/>
<feColorMatrix type="matrix" values="0 0 0 0 0 0 0 0 0 0 0 0 0 0 0 0 0 0 0.5 0"/>
<feBlend mode="normal" in2="BackgroundImageFix" result="effect1_dropShadow"/>
<feBlend mode="normal" in="SourceGraphic" in2="effect1_dropShadow" result="shape"/>
</filter>
<filter id="filter4_d" x="13.418" y="25.8159" width="313.957" height="172.896" filterUnits="userSpaceOnUse" color-interpolation-filters="sRGB">
<feFlood flood-opacity="0" result="BackgroundImageFix"/>
<feColorMatrix in="SourceAlpha" type="matrix" values="0 0 0 0 0 0 0 0 0 0 0 0 0 0 0 0 0 0 127 0"/>
<feOffset dy="4"/>
<feGaussianBlur stdDeviation="2"/>
<feColorMatrix type="matrix" values="0 0 0 0 0 0 0 0 0 0 0 0 0 0 0 0 0 0 0.5 0"/>
<feBlend mode="normal" in2="BackgroundImageFix" result="effect1_dropShadow"/>
<feBlend mode="normal" in="SourceGraphic" in2="effect1_dropShadow" result="shape"/>
</filter>
<filter id="filter5_d" x="13.418" y="25.8159" width="313.957" height="172.896" filterUnits="userSpaceOnUse" color-interpolation-filters="sRGB">
<feFlood flood-opacity="0" result="BackgroundImageFix"/>
<feColorMatrix in="SourceAlpha" type="matrix" values="0 0 0 0 0 0 0 0 0 0 0 0 0 0 0 0 0 0 127 0"/>
<feOffset dy="4"/>
<feGaussianBlur stdDeviation="2"/>
<feColorMatrix type="matrix" values="0 0 0 0 0 0 0 0 0 0 0 0 0 0 0 0 0 0 0.5 0"/>
<feBlend mode="normal" in2="BackgroundImageFix" result="effect1_dropShadow"/>
<feBlend mode="normal" in="SourceGraphic" in2="effect1_dropShadow" result="shape"/>
</filter>
<filter id="filter6_d" x="20.0566" y="20.8628" width="313.957" height="172.896" filterUnits="userSpaceOnUse" color-interpolation-filters="sRGB">
<feFlood flood-opacity="0" result="BackgroundImageFix"/>
<feColorMatrix in="SourceAlpha" type="matrix" values="0 0 0 0 0 0 0 0 0 0 0 0 0 0 0 0 0 0 127 0"/>
<feOffset dy="4"/>
<feGaussianBlur stdDeviation="2"/>
<feColorMatrix type="matrix" values="0 0 0 0 0 0 0 0 0 0 0 0 0 0 0 0 0 0 0.5 0"/>
<feBlend mode="normal" in2="BackgroundImageFix" result="effect1_dropShadow"/>
<feBlend mode="normal" in="SourceGraphic" in2="effect1_dropShadow" result="shape"/>
</filter>
<filter id="filter7_d" x="20.0566" y="20.8628" width="313.957" height="172.896" filterUnits="userSpaceOnUse" color-interpolation-filters="sRGB">
<feFlood flood-opacity="0" result="BackgroundImageFix"/>
<feColorMatrix in="SourceAlpha" type="matrix" values="0 0 0 0 0 0 0 0 0 0 0 0 0 0 0 0 0 0 127 0"/>
<feOffset dy="4"/>
<feGaussianBlur stdDeviation="2"/>
<feColorMatrix type="matrix" values="0 0 0 0 0 0 0 0 0 0 0 0 0 0 0 0 0 0 0.5 0"/>
<feBlend mode="normal" in2="BackgroundImageFix" result="effect1_dropShadow"/>
<feBlend mode="normal" in="SourceGraphic" in2="effect1_dropShadow" result="shape"/>
</filter>
<filter id="filter8_d" x="26.5156" y="16.3413" width="313.957" height="172.896" filterUnits="userSpaceOnUse" color-interpolation-filters="sRGB">
<feFlood flood-opacity="0" result="BackgroundImageFix"/>
<feColorMatrix in="SourceAlpha" type="matrix" values="0 0 0 0 0 0 0 0 0 0 0 0 0 0 0 0 0 0 127 0"/>
<feOffset dy="4"/>
<feGaussianBlur stdDeviation="2"/>
<feColorMatrix type="matrix" values="0 0 0 0 0 0 0 0 0 0 0 0 0 0 0 0 0 0 0.5 0"/>
<feBlend mode="normal" in2="BackgroundImageFix" result="effect1_dropShadow"/>
<feBlend mode="normal" in="SourceGraphic" in2="effect1_dropShadow" result="shape"/>
</filter>
<filter id="filter9_d" x="26.5156" y="16.3413" width="313.957" height="172.896" filterUnits="userSpaceOnUse" color-interpolation-filters="sRGB">
<feFlood flood-opacity="0" result="BackgroundImageFix"/>
<feColorMatrix in="SourceAlpha" type="matrix" values="0 0 0 0 0 0 0 0 0 0 0 0 0 0 0 0 0 0 127 0"/>
<feOffset dy="4"/>
<feGaussianBlur stdDeviation="2"/>
<feColorMatrix type="matrix" values="0 0 0 0 0 0 0 0 0 0 0 0 0 0 0 0 0 0 0.5 0"/>
<feBlend mode="normal" in2="BackgroundImageFix" result="effect1_dropShadow"/>
<feBlend mode="normal" in="SourceGraphic" in2="effect1_dropShadow" result="shape"/>
</filter>
<filter id="filter10_d" x="33.1562" y="11.3882" width="313.957" height="172.896" filterUnits="userSpaceOnUse" color-interpolation-filters="sRGB">
<feFlood flood-opacity="0" result="BackgroundImageFix"/>
<feColorMatrix in="SourceAlpha" type="matrix" values="0 0 0 0 0 0 0 0 0 0 0 0 0 0 0 0 0 0 127 0"/>
<feOffset dy="4"/>
<feGaussianBlur stdDeviation="2"/>
<feColorMatrix type="matrix" values="0 0 0 0 0 0 0 0 0 0 0 0 0 0 0 0 0 0 0.5 0"/>
<feBlend mode="normal" in2="BackgroundImageFix" result="effect1_dropShadow"/>
<feBlend mode="normal" in="SourceGraphic" in2="effect1_dropShadow" result="shape"/>
</filter>
<filter id="filter11_d" x="33.1562" y="11.3882" width="313.957" height="172.896" filterUnits="userSpaceOnUse" color-interpolation-filters="sRGB">
<feFlood flood-opacity="0" result="BackgroundImageFix"/>
<feColorMatrix in="SourceAlpha" type="matrix" values="0 0 0 0 0 0 0 0 0 0 0 0 0 0 0 0 0 0 127 0"/>
<feOffset dy="4"/>
<feGaussianBlur stdDeviation="2"/>
<feColorMatrix type="matrix" values="0 0 0 0 0 0 0 0 0 0 0 0 0 0 0 0 0 0 0.5 0"/>
<feBlend mode="normal" in2="BackgroundImageFix" result="effect1_dropShadow"/>
<feBlend mode="normal" in="SourceGraphic" in2="effect1_dropShadow" result="shape"/>
</filter>
<filter id="filter12_d" x="39.9336" y="5.96338" width="313.957" height="172.896" filterUnits="userSpaceOnUse" color-interpolation-filters="sRGB">
<feFlood flood-opacity="0" result="BackgroundImageFix"/>
<feColorMatrix in="SourceAlpha" type="matrix" values="0 0 0 0 0 0 0 0 0 0 0 0 0 0 0 0 0 0 127 0"/>
<feOffset dy="4"/>
<feGaussianBlur stdDeviation="2"/>
<feColorMatrix type="matrix" values="0 0 0 0 0 0 0 0 0 0 0 0 0 0 0 0 0 0 0.5 0"/>
<feBlend mode="normal" in2="BackgroundImageFix" result="effect1_dropShadow"/>
<feBlend mode="normal" in="SourceGraphic" in2="effect1_dropShadow" result="shape"/>
</filter>
<filter id="filter13_d" x="39.9336" y="5.96338" width="313.957" height="172.896" filterUnits="userSpaceOnUse" color-interpolation-filters="sRGB">
<feFlood flood-opacity="0" result="BackgroundImageFix"/>
<feColorMatrix in="SourceAlpha" type="matrix" values="0 0 0 0 0 0 0 0 0 0 0 0 0 0 0 0 0 0 127 0"/>
<feOffset dy="4"/>
<feGaussianBlur stdDeviation="2"/>
<feColorMatrix type="matrix" values="0 0 0 0 0 0 0 0 0 0 0 0 0 0 0 0 0 0 0.5 0"/>
<feBlend mode="normal" in2="BackgroundImageFix" result="effect1_dropShadow"/>
<feBlend mode="normal" in="SourceGraphic" in2="effect1_dropShadow" result="shape"/>
</filter>
<filter id="filter14_i" x="50.5723" y="1.01074" width="311.957" height="168.896" filterUnits="userSpaceOnUse" color-interpolation-filters="sRGB">
<feFlood flood-opacity="0" result="BackgroundImageFix"/>
<feBlend mode="normal" in="SourceGraphic" in2="BackgroundImageFix" result="shape"/>
<feColorMatrix in="SourceAlpha" type="matrix" values="0 0 0 0 0 0 0 0 0 0 0 0 0 0 0 0 0 0 127 0" result="hardAlpha"/>
<feOffset dx="6" dy="4"/>
<feGaussianBlur stdDeviation="3"/>
<feComposite in2="hardAlpha" operator="arithmetic" k2="-1" k3="1"/>
<feColorMatrix type="matrix" values="0 0 0 0 0 0 0 0 0 0 0 0 0 0 0 0 0 0 0.3 0"/>
<feBlend mode="normal" in2="shape" result="effect1_innerShadow"/>
</filter>
<filter id="filter15_i" x="72.25" y="254.75" width="222.25" height="21.25" filterUnits="userSpaceOnUse" color-interpolation-filters="sRGB">
<feFlood flood-opacity="0" result="BackgroundImageFix"/>
<feBlend mode="normal" in="SourceGraphic" in2="BackgroundImageFix" result="shape"/>
<feColorMatrix in="SourceAlpha" type="matrix" values="0 0 0 0 0 0 0 0 0 0 0 0 0 0 0 0 0 0 127 0" result="hardAlpha"/>
<feOffset dx="1" dy="1"/>
<feGaussianBlur stdDeviation="0.5"/>
<feComposite in2="hardAlpha" operator="arithmetic" k2="-1" k3="1"/>
<feColorMatrix type="matrix" values="0 0 0 0 0 0 0 0 0 0 0 0 0 0 0 0 0 0 0.5 0"/>
<feBlend mode="normal" in2="shape" result="effect1_innerShadow"/>
</filter>
<filter id="filter16_i" x="44" y="214" width="281" height="36" filterUnits="userSpaceOnUse" color-interpolation-filters="sRGB">
<feFlood flood-opacity="0" result="BackgroundImageFix"/>
<feBlend mode="normal" in="SourceGraphic" in2="BackgroundImageFix" result="shape"/>
<feColorMatrix in="SourceAlpha" type="matrix" values="0 0 0 0 0 0 0 0 0 0 0 0 0 0 0 0 0 0 127 0" result="hardAlpha"/>
<feOffset dx="2" dy="2"/>
<feGaussianBlur stdDeviation="1"/>
<feComposite in2="hardAlpha" operator="arithmetic" k2="-1" k3="1"/>
<feColorMatrix type="matrix" values="0 0 0 0 0 0 0 0 0 0 0 0 0 0 0 0 0 0 0.5 0"/>
<feBlend mode="normal" in2="shape" result="effect1_innerShadow"/>
</filter>
</defs>
</svg>
