<svg width="77" height="41" viewBox="0 0 77 41" fill="none" xmlns="http://www.w3.org/2000/svg">
<path d="M61.0629 0H50.9636L35.4936 39.8042V0H20.9575C18.2722 0 15.7619 0.341667 13.4852 1.025C11.2085 1.70833 9.22365 2.73333 7.53071 4.1C5.83776 5.46667 4.55345 7.11806 3.61941 9.11111C2.68537 11.1042 2.21835 13.3819 2.21835 15.9444C2.21835 17.9944 2.51024 19.7597 3.09401 21.1833C3.67779 22.6069 4.31994 23.8028 5.02047 24.7708C5.83776 25.8528 6.83018 26.7639 7.88097 27.4472L0 41H15.7619L22.0667 30.6361V41H35.0265H35.4936H48.2782L51.4306 32.8L55.9841 21.0694L60.5959 32.8L63.7483 41H77L61.0629 0ZM22.0667 20.1583H21.3662C19.79 20.1583 18.3889 19.8167 17.2798 19.1333C16.1706 18.45 15.5868 17.2542 15.5868 15.6028C15.5868 13.9514 16.1706 12.8125 17.2798 12.0722C18.3889 11.3889 19.7316 11.0472 21.3662 11.0472H22.0667V20.1583ZM33.2752 39.2917H31.0569V4.84028H33.2752V39.2917ZM59.6035 8.65556L59.0197 7.23194L58.4359 5.80833H60.771L61.3548 7.23194L61.9386 8.65556L73.7309 38.6083L74.0228 39.4056H71.6876L65.6456 24.0306L59.6035 8.65556Z" fill="#EFEDDE"/>
</svg>
