<svg width="938" height="506" viewBox="0 0 938 506" fill="none" xmlns="http://www.w3.org/2000/svg">
<g filter="url(#filter0_di)">
<path d="M745.126 0H623.211L436.463 486.471V0H260.991C228.574 0 198.271 4.17572 170.788 12.5272C143.304 20.8786 119.344 33.4057 98.9075 50.1086C78.4709 66.8115 62.9673 86.9941 51.692 111.352C40.4166 135.711 34.7789 163.549 34.7789 194.867C34.7789 219.921 38.3025 241.496 45.3496 258.894C52.3967 276.293 60.1485 290.908 68.605 302.739C78.4709 315.963 90.451 327.098 103.136 335.449L8 501.086H198.271L274.38 374.423V501.086H430.825H436.463H590.794L628.849 400.869L683.816 257.503L739.488 400.869L777.542 501.086H937.511L745.126 0ZM274.38 246.367H265.924C246.896 246.367 229.983 242.192 216.594 233.84C203.204 225.489 196.157 210.874 196.157 190.691C196.157 170.508 203.204 156.589 216.594 147.542C229.983 139.191 246.192 135.015 265.924 135.015H274.38V246.367ZM409.684 482.207H382.905V59.156H409.684V482.207ZM727.508 105.785L720.461 88.386L713.414 70.9872H741.602L748.649 88.386L755.696 105.785L895.048 461.856L898.571 471.599H870.383L800.445 293.692L727.508 105.785Z" fill="#D6D269"/>
<path d="M934.601 499.086H778.922L741.358 400.159L741.355 400.152L741.352 400.145L685.68 256.779L683.804 251.947L681.949 256.787L626.981 400.153L626.979 400.159L589.414 499.086H436.463H430.825H276.38V374.423V367.211L272.666 373.393L197.14 499.086H11.4551L104.87 336.445L105.807 334.814L104.236 333.779C91.7496 325.558 79.9445 314.589 70.22 301.56C61.8816 289.89 54.204 275.428 47.2032 258.144C40.2803 241.051 36.7788 219.749 36.7788 194.867C36.7788 163.791 42.3721 136.247 53.5068 112.193C64.6588 88.1009 79.9776 68.163 100.173 51.6572C120.39 35.1335 144.113 22.7231 171.369 14.4408C198.64 6.15401 228.744 2 260.991 2H434.463V486.471L438.33 487.188L624.586 2H743.751L934.601 499.086ZM274.38 248.367H276.38V246.367V135.015V133.015H274.38H265.924C245.903 133.015 229.308 137.255 215.535 145.845L215.504 145.864L215.474 145.885C201.439 155.368 194.157 169.968 194.157 190.691C194.157 211.363 201.408 226.725 215.535 235.537C229.313 244.131 246.615 248.367 265.924 248.367H274.38ZM409.684 484.207H411.684V482.207V59.156V57.156H409.684H382.905H380.905V59.156V482.207V484.207H382.905H409.684ZM713.414 68.9872H710.446L711.56 71.738L718.607 89.1368L725.644 106.509L725.654 106.536L798.581 294.416L798.584 294.424L868.521 472.331L869.02 473.599H870.383H898.571H901.421L900.452 470.919L896.928 461.176L896.919 461.151L896.91 461.127L757.559 105.056L757.555 105.045L757.55 105.034L750.503 87.6352L743.456 70.2364L742.95 68.9872H741.602H713.414Z" stroke="#D6D269" stroke-width="4"/>
</g>
<defs>
<filter id="filter0_di" x="0" y="0" width="937.511" height="505.086" filterUnits="userSpaceOnUse" color-interpolation-filters="sRGB">
<feFlood flood-opacity="0" result="BackgroundImageFix"/>
<feColorMatrix in="SourceAlpha" type="matrix" values="0 0 0 0 0 0 0 0 0 0 0 0 0 0 0 0 0 0 127 0"/>
<feOffset dx="-8" dy="4"/>
<feColorMatrix type="matrix" values="0 0 0 0 0 0 0 0 0 0 0 0 0 0 0 0 0 0 1 0"/>
<feBlend mode="normal" in2="BackgroundImageFix" result="effect1_dropShadow"/>
<feBlend mode="normal" in="SourceGraphic" in2="effect1_dropShadow" result="shape"/>
<feColorMatrix in="SourceAlpha" type="matrix" values="0 0 0 0 0 0 0 0 0 0 0 0 0 0 0 0 0 0 127 0" result="hardAlpha"/>
<feOffset dx="-4" dy="4"/>
<feGaussianBlur stdDeviation="2"/>
<feComposite in2="hardAlpha" operator="arithmetic" k2="-1" k3="1"/>
<feColorMatrix type="matrix" values="0 0 0 0 0 0 0 0 0 0 0 0 0 0 0 0 0 0 0.5 0"/>
<feBlend mode="normal" in2="shape" result="effect2_innerShadow"/>
</filter>
</defs>
</svg>
