<svg width="938" height="510" viewBox="0 0 938 510" fill="none" xmlns="http://www.w3.org/2000/svg">
<g filter="url(#filter0_i)">
<g filter="url(#filter1_d)">
<path d="M741.442 0.0507812H619.527L432.779 486.522V0.0507812H257.306C224.89 0.0507812 194.587 4.2265 167.104 12.5779C139.62 20.9294 115.66 33.4565 95.2234 50.1594C74.7868 66.8623 59.2832 87.0449 48.0079 111.403C36.7325 135.762 31.0949 163.6 31.0949 194.918C31.0949 219.972 34.6184 241.546 41.6655 258.945C48.7126 276.344 56.4644 290.959 64.9209 302.79C74.7868 316.013 86.7669 327.149 99.4516 335.5L4.31592 501.137H194.587L270.696 374.473V501.137H427.141H432.779H587.11L625.165 400.92L680.132 257.553L735.804 400.92L773.858 501.137H933.827L741.442 0.0507812ZM270.696 246.418H262.239C243.212 246.418 226.299 242.242 212.91 233.891C199.52 225.539 192.473 210.924 192.473 190.742C192.473 170.559 199.52 156.64 212.91 147.593C226.299 139.241 242.508 135.066 262.239 135.066H270.696V246.418ZM406 480.258H379.221V59.2068H406V480.258ZM723.824 105.836L716.777 88.4368L709.73 71.038H737.918L744.965 88.4368L752.012 105.836L894.363 471.907L897.887 481.65H869.699L796.761 293.743L723.824 105.836Z" fill="#D6D269"/>
</g>
</g>
<defs>
<filter id="filter0_i" x="4.31592" y="0.0507812" width="933.511" height="505.086" filterUnits="userSpaceOnUse" color-interpolation-filters="sRGB">
<feFlood flood-opacity="0" result="BackgroundImageFix"/>
<feBlend mode="normal" in="SourceGraphic" in2="BackgroundImageFix" result="shape"/>
<feColorMatrix in="SourceAlpha" type="matrix" values="0 0 0 0 0 0 0 0 0 0 0 0 0 0 0 0 0 0 127 0" result="hardAlpha"/>
<feOffset dx="4" dy="4"/>
<feGaussianBlur stdDeviation="2"/>
<feComposite in2="hardAlpha" operator="arithmetic" k2="-1" k3="1"/>
<feColorMatrix type="matrix" values="0 0 0 0 0 0 0 0 0 0 0 0 0 0 0 0 0 0 0.5 0"/>
<feBlend mode="normal" in2="shape" result="effect1_innerShadow"/>
</filter>
<filter id="filter1_d" x="0.315918" y="0.0507812" width="937.511" height="509.086" filterUnits="userSpaceOnUse" color-interpolation-filters="sRGB">
<feFlood flood-opacity="0" result="BackgroundImageFix"/>
<feColorMatrix in="SourceAlpha" type="matrix" values="0 0 0 0 0 0 0 0 0 0 0 0 0 0 0 0 0 0 127 0"/>
<feOffset dy="4"/>
<feGaussianBlur stdDeviation="2"/>
<feColorMatrix type="matrix" values="0 0 0 0 0 0 0 0 0 0 0 0 0 0 0 0 0 0 1 0"/>
<feBlend mode="normal" in2="BackgroundImageFix" result="effect1_dropShadow"/>
<feBlend mode="normal" in="SourceGraphic" in2="effect1_dropShadow" result="shape"/>
</filter>
</defs>
</svg>
