<svg width="237" height="176" viewBox="0 0 237 176" fill="none" xmlns="http://www.w3.org/2000/svg">
<g filter="url(#filter0_i)">
<path d="M21.69 147.29C24.014 150.902 26.114 153.94 27.99 156.404L27.906 157.16C25.778 157.86 23.524 158.294 21.144 158.462L20.472 157.916C18.792 154.78 17.336 151.91 16.104 149.306H12.534L12.786 158H5.94L6.318 149.978L5.94 130.91L17.364 130.868C20.304 130.868 22.558 131.582 24.126 133.01C25.722 134.41 26.52 136.426 26.52 139.058C26.52 140.71 26.1 142.25 25.26 143.678C24.42 145.106 23.23 146.31 21.69 147.29ZM12.66 144.182L16.314 144.35C17.35 143.958 18.106 143.384 18.582 142.628C19.086 141.872 19.338 140.892 19.338 139.688C19.338 138.372 18.988 137.406 18.288 136.79C17.616 136.146 16.552 135.796 15.096 135.74L12.828 135.866L12.66 144.182ZM48.1257 152.456L48.5037 152.96L48.0837 158H30.1917L30.5697 149.978L30.1917 130.91H48.3357L48.7137 131.414L48.2517 136.454L41.6577 136.202L37.0377 136.244L36.9537 141.662H41.3637L45.7737 141.536L46.1517 142.04L45.7317 147.08L40.9017 146.954H36.8277L36.7857 149.306L36.8697 152.666L41.3217 152.708L48.1257 152.456ZM68.8091 152.456L69.1871 152.96L68.7671 158H50.8751L51.2531 149.978L50.8751 130.91H69.0191L69.3971 131.414L68.9351 136.454L62.3411 136.202L57.7211 136.244L57.6371 141.662H62.0471L66.4571 141.536L66.8351 142.04L66.4151 147.08L61.5851 146.954H57.5111L57.4691 149.306L57.5531 152.666L62.0051 152.708L68.8091 152.456ZM82.4903 130.532C85.0663 130.532 87.4043 130.994 89.5043 131.918L88.2863 137.504L87.8243 137.756C87.0403 137.224 86.1443 136.818 85.1363 136.538C84.1563 136.23 83.1903 136.076 82.2383 136.076C80.2223 136.076 78.7243 136.706 77.7443 137.966C76.7923 139.226 76.3163 141.214 76.3163 143.93C76.3163 149.81 78.4023 152.75 82.5743 152.75C83.4983 152.75 84.4783 152.624 85.5143 152.372C86.5503 152.12 87.4883 151.77 88.3283 151.322L88.9163 151.658L88.3703 157.244C86.4103 158.028 84.2963 158.42 82.0283 158.42C77.8003 158.42 74.5943 157.244 72.4103 154.892C70.2263 152.54 69.1343 149.138 69.1343 144.686C69.1343 140.178 70.2963 136.692 72.6203 134.228C74.9443 131.764 78.2343 130.532 82.4903 130.532ZM109.396 152.456L109.775 152.96L109.354 158H91.4625L91.8405 149.978L91.4625 130.91H109.607L109.985 131.414L109.522 136.454L102.929 136.202L98.3085 136.244L98.2245 141.662H102.635L107.044 141.536L107.422 142.04L107.003 147.08L102.172 146.954H98.0985L98.0565 149.306L98.1405 152.666L102.592 152.708L109.396 152.456ZM139.132 158H132.202L131.488 154.094L131.11 152.54L126.238 152.456L122.038 152.582L121.702 153.674L120.946 158H114.268L123.004 130.91H131.194L139.132 158ZM129.808 147.416L127.162 137.126H126.742L123.592 147.416L126.7 147.5L129.808 147.416ZM157.122 147.29C159.446 150.902 161.546 153.94 163.422 156.404L163.338 157.16C161.21 157.86 158.956 158.294 156.576 158.462L155.904 157.916C154.224 154.78 152.768 151.91 151.536 149.306H147.966L148.218 158H141.372L141.75 149.978L141.372 130.91L152.796 130.868C155.736 130.868 157.99 131.582 159.558 133.01C161.154 134.41 161.952 136.426 161.952 139.058C161.952 140.71 161.532 142.25 160.692 143.678C159.852 145.106 158.662 146.31 157.122 147.29ZM148.092 144.182L151.746 144.35C152.782 143.958 153.538 143.384 154.014 142.628C154.518 141.872 154.77 140.892 154.77 139.688C154.77 138.372 154.42 137.406 153.72 136.79C153.048 136.146 151.984 135.796 150.528 135.74L148.26 135.866L148.092 144.182ZM194.562 158H188.556L188.22 149.768L187.464 140.864H187.044L181.668 155.27H176.46L171.756 140.864H171.294L170.454 149.138L169.908 158H164.238L166.926 130.91H174.78L175.746 134.858L179.232 146.45H179.652L183.432 134.984L184.524 130.91H192.252L194.562 158ZM215.93 152.456L216.308 152.96L215.888 158H197.996L198.374 149.978L197.996 130.91H216.14L216.518 131.414L216.056 136.454L209.462 136.202L204.842 136.244L204.758 141.662H209.168L213.578 141.536L213.956 142.04L213.536 147.08L208.706 146.954H204.632L204.59 149.306L204.674 152.666L209.126 152.708L215.93 152.456ZM228.046 130.49C230.454 130.49 232.89 130.966 235.354 131.918L234.262 137.63L233.254 138.008C232.19 137.308 231.126 136.762 230.062 136.37C228.998 135.978 228.074 135.782 227.29 135.782C226.366 135.782 225.624 136.02 225.064 136.496C224.532 136.944 224.266 137.476 224.266 138.092C224.266 138.792 224.602 139.394 225.274 139.898C225.974 140.374 227.066 140.948 228.55 141.62C230.118 142.348 231.378 143.02 232.33 143.636C233.31 144.224 234.15 145.022 234.85 146.03C235.578 147.038 235.942 148.27 235.942 149.726C235.942 151.35 235.494 152.82 234.598 154.136C233.73 155.452 232.484 156.502 230.86 157.286C229.236 158.042 227.36 158.42 225.232 158.42C222.404 158.42 219.604 157.86 216.832 156.74L217.798 150.65L218.512 150.23C219.688 151.21 220.962 151.98 222.334 152.54C223.734 153.072 224.938 153.338 225.946 153.338C227.01 153.338 227.808 153.1 228.34 152.624C228.9 152.148 229.18 151.588 229.18 150.944C229.18 150.188 228.83 149.558 228.13 149.054C227.43 148.55 226.338 147.962 224.854 147.29C223.342 146.59 222.096 145.946 221.116 145.358C220.164 144.742 219.338 143.93 218.638 142.922C217.938 141.914 217.588 140.682 217.588 139.226C217.588 137.574 218.022 136.09 218.89 134.774C219.786 133.43 221.018 132.38 222.586 131.624C224.182 130.868 226.002 130.49 228.046 130.49Z" fill="#1CA199"/>
</g>
<g filter="url(#filter1_i)">
<g filter="url(#filter2_d)">
<path d="M184.81 0H154.905L109.098 119.413V0H66.0561C58.1046 0 50.6717 1.025 43.9302 3.075C37.1888 5.125 31.3116 8.2 26.2987 12.3C21.2858 16.4 17.4829 21.3542 14.7172 27.3333C11.9515 33.3125 10.5686 40.1458 10.5686 47.8333C10.5686 53.9833 11.4329 59.2792 13.1615 63.55C14.8901 67.8208 16.7915 71.4083 18.8658 74.3125C21.2858 77.5583 24.2244 80.2917 27.3359 82.3417L4 123H50.6717L69.3404 91.9083V123H107.715H109.098H146.954L156.288 98.4L169.771 63.2083L183.427 98.4L192.761 123H232L184.81 0ZM69.3404 60.475H67.2661C62.5989 60.475 58.4503 59.45 55.166 57.4C51.8817 55.35 50.1531 51.7625 50.1531 46.8083C50.1531 41.8542 51.8817 38.4375 55.166 36.2167C58.4503 34.1667 62.4261 33.1417 67.2661 33.1417H69.3404V60.475ZM102.529 117.875H95.9606V14.5208H102.529V117.875ZM180.488 25.9667L178.76 21.6958L177.031 17.425H183.945L185.674 21.6958L187.403 25.9667L222.32 115.825L223.184 118.217H216.27L198.379 72.0917L180.488 25.9667Z" fill="#EFEDDE"/>
</g>
</g>
<defs>
<filter id="filter0_i" x="5.93945" y="130.49" width="230.002" height="31.972" filterUnits="userSpaceOnUse" color-interpolation-filters="sRGB">
<feFlood flood-opacity="0" result="BackgroundImageFix"/>
<feBlend mode="normal" in="SourceGraphic" in2="BackgroundImageFix" result="shape"/>
<feColorMatrix in="SourceAlpha" type="matrix" values="0 0 0 0 0 0 0 0 0 0 0 0 0 0 0 0 0 0 127 0" result="hardAlpha"/>
<feOffset dy="4"/>
<feGaussianBlur stdDeviation="2"/>
<feComposite in2="hardAlpha" operator="arithmetic" k2="-1" k3="1"/>
<feColorMatrix type="matrix" values="0 0 0 0 0 0 0 0 0 0 0 0 0 0 0 0 0 0 0.3 0"/>
<feBlend mode="normal" in2="shape" result="effect1_innerShadow"/>
</filter>
<filter id="filter1_i" x="4" y="0" width="232" height="127" filterUnits="userSpaceOnUse" color-interpolation-filters="sRGB">
<feFlood flood-opacity="0" result="BackgroundImageFix"/>
<feBlend mode="normal" in="SourceGraphic" in2="BackgroundImageFix" result="shape"/>
<feColorMatrix in="SourceAlpha" type="matrix" values="0 0 0 0 0 0 0 0 0 0 0 0 0 0 0 0 0 0 127 0" result="hardAlpha"/>
<feOffset dx="4" dy="4"/>
<feGaussianBlur stdDeviation="2"/>
<feComposite in2="hardAlpha" operator="arithmetic" k2="-1" k3="1"/>
<feColorMatrix type="matrix" values="0 0 0 0 0 0 0 0 0 0 0 0 0 0 0 0 0 0 0.5 0"/>
<feBlend mode="normal" in2="shape" result="effect1_innerShadow"/>
</filter>
<filter id="filter2_d" x="0" y="0" width="236" height="131" filterUnits="userSpaceOnUse" color-interpolation-filters="sRGB">
<feFlood flood-opacity="0" result="BackgroundImageFix"/>
<feColorMatrix in="SourceAlpha" type="matrix" values="0 0 0 0 0 0 0 0 0 0 0 0 0 0 0 0 0 0 127 0"/>
<feOffset dy="4"/>
<feGaussianBlur stdDeviation="2"/>
<feColorMatrix type="matrix" values="0 0 0 0 0 0 0 0 0 0 0 0 0 0 0 0 0 0 1 0"/>
<feBlend mode="normal" in2="BackgroundImageFix" result="effect1_dropShadow"/>
<feBlend mode="normal" in="SourceGraphic" in2="effect1_dropShadow" result="shape"/>
</filter>
</defs>
</svg>
