<svg width="79" height="79" viewBox="0 0 79 79" fill="none" xmlns="http://www.w3.org/2000/svg">
<ellipse cx="39.3856" cy="39.4251" rx="39.4254" ry="39.3856" transform="rotate(-90 39.3856 39.4251)" fill="#1CA199"/>
<ellipse cx="39.6846" cy="39.72" rx="33.489" ry="33.46" transform="rotate(-90 39.6846 39.72)" fill="#141D1C"/>
<path d="M22.6348 52.9277V61.0008H24.6804V58.8983L26.5419 60.7722H29.6806L27.1912 58.2662C27.1912 58.2662 28.9824 58.2369 29.1177 55.6301C29.1177 53.238 27.3245 52.9277 25.2538 52.9277H22.6348V52.9277ZM24.7779 55.1179H26.5419V56.5559H24.7779V55.1179Z" fill="#D6D269"/>
<path d="M33.6309 52.9602C32.5113 52.9538 30.958 53.0584 30.958 55.1831V60.7938H33.0575V59.4212H35.0923V60.761H37.2026V54.8781C37.2026 53.0328 35.1659 52.9602 34.0747 52.9602H33.6309ZM33.0896 54.9864H35.0594V57.1983H33.0896V54.9864V54.9864Z" fill="#D6D269"/>
<path d="M39.3057 52.9648H41.478V60.6878H39.3057V52.9648Z" fill="#D6D269"/>
<path d="M43.7529 53.067V60.79H48.981V58.7398H45.892V53.0332L43.7529 53.067V53.067Z" fill="#D6D269"/>
<path d="M55.9063 52.9981V55.0826H52.4097V55.8343H53.9036C53.9036 55.8343 56.3142 55.8004 56.3142 58.2606C56.3142 60.7211 55.1935 60.858 52.9192 60.858H50.1698V58.9785H53.3268C54.2772 58.9785 54.3298 58.6667 54.3298 58.3952C54.3298 58.1241 53.8442 57.9981 52.8557 57.9981C51.8673 57.9981 50.0342 57.5088 50.0342 55.5955C50.0342 53.6818 50.9849 52.9639 52.8856 52.9639C54.7863 52.9642 55.9063 52.9981 55.9063 52.9981V52.9981Z" fill="#D6D269"/>
<path fill-rule="evenodd" clip-rule="evenodd" d="M53.1302 17.6861C49.4883 15.8769 45.7582 15.693 41.9388 17.0517C38.4243 18.3024 35.6207 20.5403 33.5369 23.5878C30.0104 28.7458 27.4493 34.3738 26.0129 40.4869C25.2785 43.6164 24.8022 46.6181 24.9303 49.8495C24.9408 50.112 24.9792 50.4711 25.005 50.4711H43.0162C42.965 50.4711 42.9307 50.3628 42.8862 50.2481C41.9388 47.8132 41.1883 45.4004 40.6698 42.838C39.9246 39.1587 39.5346 35.4895 40.3041 31.776C41.3815 26.5756 44.3263 22.8628 49.2903 20.9182C52.1021 19.8157 54.7705 20.1496 57.1117 22.2175C57.1333 22.2367 57.177 22.2356 57.2342 22.245L58 21.0841C56.5259 19.6709 54.9061 18.5683 53.1302 17.6861V17.6861ZM24.9299 41.8798L21.3997 41.6113L21 45.0507L24.3214 45.4523L24.9299 41.8798V41.8798ZM27.9192 31.3432C26.84 30.9186 25.8347 30.5223 24.7951 30.1124C24.4484 31.1044 24.1249 32.0276 23.7849 32.9986C24.8754 33.3506 25.9023 33.6819 26.9692 34.0256L27.9192 31.3432V31.3432ZM42.665 47.4601C43.7316 47.5398 44.8004 47.5954 45.9775 47.6643C45.5497 46.7696 45.1706 45.9607 44.7723 45.1609C44.729 45.074 44.5818 44.9901 44.4821 44.9886C43.5773 44.9755 42.6714 44.9807 41.7098 44.9807C41.9261 45.7705 42.1148 46.4981 42.3352 47.2164C42.3681 47.3247 42.5455 47.451 42.665 47.4601ZM33.2142 22.6015L30.8409 21.0194C30.2047 21.735 29.5913 22.4251 28.9432 23.1535L31.3833 24.8044L33.2142 22.6015V22.6015ZM40.7729 38.6311C40.7696 38.7277 40.8559 38.8812 40.9395 38.9195C41.7946 39.3061 42.6583 39.6746 43.599 40.0827C43.5597 39.3343 43.5332 38.7086 43.4891 38.0843C43.4809 37.9722 43.4282 37.8102 43.3457 37.7639C42.5608 37.3262 41.7651 36.9088 40.8943 36.444C40.8465 37.2446 40.7983 37.9369 40.7729 38.6311ZM40.0699 16.9539L38.4449 15.0977L36.2076 16.2684L37.8348 18.2641L40.0699 16.9539ZM41.089 31.7241C41.0408 31.8369 41.105 32.0746 41.2003 32.1615C41.8492 32.7508 42.5205 33.3145 43.2669 33.9579C43.438 33.237 43.599 32.5947 43.7357 31.9479C43.76 31.8324 43.7264 31.6421 43.6468 31.5782C43.0659 31.1066 42.4667 30.6584 41.8454 30.1808C41.5724 30.7265 41.3079 31.2153 41.089 31.7241V31.7241ZM44.8037 15.978C45.633 16.0014 46.4635 15.9908 47.3395 15.9908C47.2521 15.3771 47.2106 14.9116 47.1064 14.4614C47.0754 14.3279 46.8744 14.1489 46.7396 14.138C45.9084 14.0699 45.0734 14.044 44.1582 14C44.2804 14.6194 44.3734 15.1654 44.5049 15.702C44.5333 15.8163 44.6984 15.9758 44.8037 15.978ZM45.8139 26.6933C45.8561 26.6136 45.8669 26.4684 45.8224 26.3985C45.4145 25.7569 44.9916 25.1248 44.5531 24.4603L43.1324 25.7731L45.097 27.9643C45.3603 27.5018 45.5964 27.1024 45.8139 26.6933ZM47.3455 22.3303C47.6473 22.894 47.9208 23.4051 48.1939 23.9169C49.5211 23.1851 49.6485 22.9192 49.1782 21.8644L47.3455 22.3303V22.3303ZM53.6969 17.4428C54.2494 17.7857 54.8325 18.0775 55.4254 18.3994L55.8221 17.7775L53.6102 16.1476C53.5796 16.4789 53.5333 16.7113 53.5452 16.9396C53.5545 17.1145 53.5841 17.3724 53.6969 17.4428V17.4428ZM55.1639 21.8415C54.0432 21.7095 53.6696 21.579 52.9225 21.4436V22.4642C53.6696 22.5293 54.0432 22.5917 55.1639 22.6571V21.8415Z" fill="#D6D269"/>
</svg>
