<svg width="79" height="79" viewBox="0 0 79 79" fill="none" xmlns="http://www.w3.org/2000/svg">
<ellipse cx="39.3856" cy="39.4251" rx="39.4254" ry="39.3856" transform="rotate(-90 39.3856 39.4251)" fill="#1CA199"/>
<ellipse cx="39.6846" cy="39.72" rx="33.489" ry="33.46" transform="rotate(-90 39.6846 39.72)" fill="#141D1C"/>
<path d="M40.5002 44.0882C43.0649 44.0882 45.144 42.0339 45.144 39.4997C45.144 36.9655 43.0649 34.9111 40.5002 34.9111C37.9355 34.9111 35.8564 36.9655 35.8564 39.4997C35.8564 42.0339 37.9355 44.0882 40.5002 44.0882Z" fill="#D6D269"/>
<path d="M58.1382 31.9329C57.242 31.6109 56.3051 31.2889 55.3275 31.0072C55.5719 30.0411 55.7756 29.0751 55.9385 28.1494C56.7939 22.8363 55.857 19.093 53.25 17.644C52.476 17.2013 51.6206 17 50.643 17C47.7915 17 44.1661 19.093 40.5 22.5948C36.8339 19.093 33.2085 17 30.357 17C29.3794 17 28.524 17.2013 27.75 17.644C25.143 19.1333 24.2061 22.8766 25.0615 28.1494C25.2244 29.0751 25.4281 30.0411 25.6725 31.0072C24.6949 31.2889 23.758 31.5707 22.8618 31.9329C17.77 33.8649 15 36.5215 15 39.5C15 42.4785 17.8107 45.1351 22.8618 47.0671C23.758 47.3891 24.6949 47.7111 25.6725 47.9928C25.4281 48.9589 25.2244 49.9249 25.0615 50.8506C24.2061 56.1637 25.143 59.907 27.75 61.356C28.524 61.7987 29.3794 62 30.357 62C33.2492 62 36.8746 59.907 40.5 56.4052C44.1661 59.907 47.7915 62 50.643 62C51.6206 62 52.476 61.7987 53.25 61.356C55.857 59.8667 56.7939 56.1234 55.9385 50.8506C55.7756 49.9249 55.5719 48.9589 55.3275 47.9928C56.3051 47.7111 57.242 47.4293 58.1382 47.0671C63.23 45.1351 66 42.4785 66 39.5C66 36.5215 63.23 33.8649 58.1382 31.9329ZM52.1094 19.6565C53.7796 20.6225 54.3498 23.6011 53.6573 27.8274C53.5351 28.6726 53.3315 29.5581 53.0871 30.4839C50.9689 30.0009 48.7284 29.6789 46.3658 29.4776C44.9808 27.5456 43.5551 25.8148 42.1294 24.2451C45.1438 21.3068 48.1989 19.2943 50.6837 19.2943C51.2133 19.2943 51.7021 19.415 52.1094 19.6565V19.6565ZM47.5471 43.525C46.8139 44.8131 45.9585 46.1011 45.0623 47.3891C43.5551 47.5098 42.0479 47.5501 40.5 47.5501C38.9113 47.5501 37.4042 47.5098 35.9377 47.3891C35.0415 46.1011 34.2268 44.8131 33.4936 43.525C32.7196 42.1968 31.9864 40.8283 31.3347 39.5C31.9864 38.1717 32.7196 36.8032 33.4936 35.475C34.2268 34.1869 35.0823 32.8989 35.9784 31.6109C37.4856 31.4902 38.9928 31.4499 40.5407 31.4499C42.1294 31.4499 43.6366 31.4902 45.103 31.6109C45.9992 32.8989 46.8139 34.1869 47.5471 35.475C48.3211 36.8032 49.0543 38.1717 49.7061 39.5C49.0136 40.8283 48.3211 42.1565 47.5471 43.525ZM50.9281 42.1968C51.5391 43.6055 52.028 44.9741 52.476 46.3426C51.0911 46.6646 49.6246 46.9061 48.0767 47.1073C48.5655 46.3426 49.095 45.5376 49.5431 44.6923C50.0319 43.847 50.48 43.0018 50.9281 42.1968ZM40.5 53.1047C39.5224 52.0581 38.5855 50.9311 37.6893 49.7639C38.6262 49.8041 39.5631 49.8444 40.5 49.8444C41.4369 49.8444 42.3738 49.8041 43.3107 49.7639C42.4145 50.9311 41.4776 52.0581 40.5 53.1047ZM32.9233 47.0671C31.3754 46.8658 29.9089 46.6243 28.524 46.3023C28.972 44.9741 29.4609 43.5653 30.0719 42.1565C30.52 42.9615 30.9681 43.8068 31.4569 44.6118C31.9457 45.4973 32.4345 46.2621 32.9233 47.0671V47.0671ZM30.0719 36.8032C29.4609 35.3945 28.972 34.0259 28.524 32.6574C29.9089 32.3354 31.3754 32.0939 32.9233 31.8927C32.4345 32.6574 31.905 33.4624 31.4569 34.3077C30.9681 35.153 30.52 35.9982 30.0719 36.8032V36.8032ZM40.5 25.8953C41.4776 26.9419 42.4145 28.0689 43.3107 29.2361C42.3738 29.1959 41.4369 29.1556 40.5 29.1556C39.5631 29.1556 38.6262 29.1959 37.6893 29.2361C38.5855 28.0689 39.5224 26.9419 40.5 25.8953V25.8953ZM49.5431 34.3479L48.0767 31.9329C49.6246 32.1342 51.0911 32.3757 52.476 32.6977C52.028 34.0259 51.5391 35.4347 50.9281 36.8435C50.48 35.9982 50.0319 35.153 49.5431 34.3479V34.3479ZM27.3427 27.8274C26.6502 23.6011 27.2204 20.6225 28.8906 19.6565C29.2979 19.415 29.7867 19.2943 30.3163 19.2943C32.7604 19.2943 35.8155 21.2665 38.8706 24.2451C37.4449 25.7746 36.0192 27.5456 34.6342 29.4776C32.2716 29.6789 30.0311 30.0411 27.9129 30.4839C27.6685 29.5581 27.5056 28.6726 27.3427 27.8274ZM17.2812 39.5C17.2812 37.6082 19.603 35.5957 23.6765 34.1064C24.4912 33.7844 25.3874 33.5027 26.2835 33.2612C26.9353 35.2737 27.75 37.407 28.7276 39.5403C27.75 41.6735 26.8946 43.7665 26.2835 45.7791C20.6621 44.1691 17.2812 41.754 17.2812 39.5V39.5ZM28.8906 59.3435C27.2204 58.3775 26.6502 55.3989 27.3427 51.1726C27.4649 50.3274 27.6685 49.4419 27.9129 48.5161C30.0311 48.9991 32.2716 49.3211 34.6342 49.5224C36.0192 51.4544 37.4449 53.1852 38.8706 54.7549C35.8562 57.6932 32.8011 59.7057 30.3163 59.7057C29.7867 59.7057 29.2979 59.585 28.8906 59.3435ZM53.6573 51.1726C54.3498 55.3989 53.7796 58.3775 52.1094 59.3435C51.7021 59.585 51.2133 59.7057 50.6837 59.7057C48.2396 59.7057 45.1845 57.7335 42.1294 54.7549C43.5551 53.2254 44.9808 51.4544 46.3658 49.5224C48.7284 49.3211 50.9689 48.9589 53.0871 48.5161C53.3315 49.4419 53.4944 50.3274 53.6573 51.1726V51.1726ZM57.3235 44.8936C56.5088 45.2156 55.6126 45.4973 54.7165 45.7388C54.0647 43.7263 53.25 41.593 52.2724 39.4598C53.25 37.3265 54.1054 35.2335 54.7165 33.2209C60.3379 34.8309 63.7188 37.246 63.7188 39.5C63.7188 41.3918 61.3562 43.4043 57.3235 44.8936V44.8936Z" fill="#D6D269"/>
</svg>
