<svg width="231" height="29" viewBox="0 0 231 29" fill="none" xmlns="http://www.w3.org/2000/svg">
<g filter="url(#filter0_i)">
<path d="M16.69 17.29C19.014 20.902 21.114 23.94 22.99 26.404L22.906 27.16C20.778 27.86 18.524 28.294 16.144 28.462L15.472 27.916C13.792 24.78 12.336 21.91 11.104 19.306H7.534L7.786 28H0.94L1.318 19.978L0.94 0.909998L12.364 0.867999C15.304 0.867999 17.558 1.582 19.126 3.01C20.722 4.41 21.52 6.426 21.52 9.058C21.52 10.71 21.1 12.25 20.26 13.678C19.42 15.106 18.23 16.31 16.69 17.29ZM7.66 14.182L11.314 14.35C12.35 13.958 13.106 13.384 13.582 12.628C14.086 11.872 14.338 10.892 14.338 9.688C14.338 8.372 13.988 7.406 13.288 6.79C12.616 6.146 11.552 5.796 10.096 5.74L7.828 5.866L7.66 14.182ZM43.1257 22.456L43.5037 22.96L43.0837 28H25.1917L25.5697 19.978L25.1917 0.909998H43.3357L43.7137 1.414L43.2517 6.454L36.6577 6.202L32.0377 6.244L31.9537 11.662H36.3637L40.7737 11.536L41.1517 12.04L40.7317 17.08L35.9017 16.954H31.8277L31.7857 19.306L31.8697 22.666L36.3217 22.708L43.1257 22.456ZM63.8091 22.456L64.1871 22.96L63.7671 28H45.8751L46.2531 19.978L45.8751 0.909998H64.0191L64.3971 1.414L63.9351 6.454L57.3411 6.202L52.7211 6.244L52.6371 11.662H57.0471L61.4571 11.536L61.8351 12.04L61.4151 17.08L56.5851 16.954H52.5111L52.4691 19.306L52.5531 22.666L57.0051 22.708L63.8091 22.456ZM77.4903 0.531998C80.0663 0.531998 82.4043 0.993998 84.5043 1.918L83.2863 7.504L82.8243 7.756C82.0403 7.224 81.1443 6.818 80.1363 6.538C79.1563 6.23 78.1903 6.076 77.2383 6.076C75.2223 6.076 73.7243 6.706 72.7443 7.966C71.7923 9.226 71.3163 11.214 71.3163 13.93C71.3163 19.81 73.4023 22.75 77.5743 22.75C78.4983 22.75 79.4783 22.624 80.5143 22.372C81.5503 22.12 82.4883 21.77 83.3283 21.322L83.9163 21.658L83.3703 27.244C81.4103 28.028 79.2963 28.42 77.0283 28.42C72.8003 28.42 69.5943 27.244 67.4103 24.892C65.2263 22.54 64.1343 19.138 64.1343 14.686C64.1343 10.178 65.2963 6.692 67.6203 4.228C69.9443 1.764 73.2343 0.531998 77.4903 0.531998ZM104.396 22.456L104.775 22.96L104.354 28H86.4625L86.8405 19.978L86.4625 0.909998H104.607L104.985 1.414L104.522 6.454L97.9285 6.202L93.3085 6.244L93.2245 11.662H97.6345L102.044 11.536L102.422 12.04L102.003 17.08L97.1725 16.954H93.0985L93.0565 19.306L93.1405 22.666L97.5925 22.708L104.396 22.456ZM134.132 28H127.202L126.488 24.094L126.11 22.54L121.238 22.456L117.038 22.582L116.702 23.674L115.946 28H109.268L118.004 0.909998H126.194L134.132 28ZM124.808 17.416L122.162 7.126H121.742L118.592 17.416L121.7 17.5L124.808 17.416ZM152.122 17.29C154.446 20.902 156.546 23.94 158.422 26.404L158.338 27.16C156.21 27.86 153.956 28.294 151.576 28.462L150.904 27.916C149.224 24.78 147.768 21.91 146.536 19.306H142.966L143.218 28H136.372L136.75 19.978L136.372 0.909998L147.796 0.867999C150.736 0.867999 152.99 1.582 154.558 3.01C156.154 4.41 156.952 6.426 156.952 9.058C156.952 10.71 156.532 12.25 155.692 13.678C154.852 15.106 153.662 16.31 152.122 17.29ZM143.092 14.182L146.746 14.35C147.782 13.958 148.538 13.384 149.014 12.628C149.518 11.872 149.77 10.892 149.77 9.688C149.77 8.372 149.42 7.406 148.72 6.79C148.048 6.146 146.984 5.796 145.528 5.74L143.26 5.866L143.092 14.182ZM189.562 28H183.556L183.22 19.768L182.464 10.864H182.044L176.668 25.27H171.46L166.756 10.864H166.294L165.454 19.138L164.908 28H159.238L161.926 0.909998H169.78L170.746 4.858L174.232 16.45H174.652L178.432 4.984L179.524 0.909998H187.252L189.562 28ZM210.93 22.456L211.308 22.96L210.888 28H192.996L193.374 19.978L192.996 0.909998H211.14L211.518 1.414L211.056 6.454L204.462 6.202L199.842 6.244L199.758 11.662H204.168L208.578 11.536L208.956 12.04L208.536 17.08L203.706 16.954H199.632L199.59 19.306L199.674 22.666L204.126 22.708L210.93 22.456ZM223.046 0.489999C225.454 0.489999 227.89 0.965998 230.354 1.918L229.262 7.63L228.254 8.008C227.19 7.308 226.126 6.762 225.062 6.37C223.998 5.978 223.074 5.782 222.29 5.782C221.366 5.782 220.624 6.02 220.064 6.496C219.532 6.944 219.266 7.476 219.266 8.092C219.266 8.792 219.602 9.394 220.274 9.898C220.974 10.374 222.066 10.948 223.55 11.62C225.118 12.348 226.378 13.02 227.33 13.636C228.31 14.224 229.15 15.022 229.85 16.03C230.578 17.038 230.942 18.27 230.942 19.726C230.942 21.35 230.494 22.82 229.598 24.136C228.73 25.452 227.484 26.502 225.86 27.286C224.236 28.042 222.36 28.42 220.232 28.42C217.404 28.42 214.604 27.86 211.832 26.74L212.798 20.65L213.512 20.23C214.688 21.21 215.962 21.98 217.334 22.54C218.734 23.072 219.938 23.338 220.946 23.338C222.01 23.338 222.808 23.1 223.34 22.624C223.9 22.148 224.18 21.588 224.18 20.944C224.18 20.188 223.83 19.558 223.13 19.054C222.43 18.55 221.338 17.962 219.854 17.29C218.342 16.59 217.096 15.946 216.116 15.358C215.164 14.742 214.338 13.93 213.638 12.922C212.938 11.914 212.588 10.682 212.588 9.226C212.588 7.574 213.022 6.09 213.89 4.774C214.786 3.43 216.018 2.38 217.586 1.624C219.182 0.867999 221.002 0.489999 223.046 0.489999Z" fill="#60D9CA"/>
</g>
<defs>
<filter id="filter0_i" x="0.939941" y="0.490234" width="230.002" height="31.972" filterUnits="userSpaceOnUse" color-interpolation-filters="sRGB">
<feFlood flood-opacity="0" result="BackgroundImageFix"/>
<feBlend mode="normal" in="SourceGraphic" in2="BackgroundImageFix" result="shape"/>
<feColorMatrix in="SourceAlpha" type="matrix" values="0 0 0 0 0 0 0 0 0 0 0 0 0 0 0 0 0 0 127 0" result="hardAlpha"/>
<feOffset dy="4"/>
<feGaussianBlur stdDeviation="2"/>
<feComposite in2="hardAlpha" operator="arithmetic" k2="-1" k3="1"/>
<feColorMatrix type="matrix" values="0 0 0 0 0 0 0 0 0 0 0 0 0 0 0 0 0 0 0.3 0"/>
<feBlend mode="normal" in2="shape" result="effect1_innerShadow"/>
</filter>
</defs>
</svg>
