<svg width="79" height="79" viewBox="0 0 79 79" fill="none" xmlns="http://www.w3.org/2000/svg">
<ellipse cx="39.3856" cy="39.4251" rx="39.4254" ry="39.3856" transform="rotate(-90 39.3856 39.4251)" fill="#1CA199"/>
<ellipse cx="39.6846" cy="39.72" rx="33.489" ry="33.46" transform="rotate(-90 39.6846 39.72)" fill="#141D1C"/>
<path fill-rule="evenodd" clip-rule="evenodd" d="M28.7862 54.8143C38.3051 56.107 47.6548 57.3765 57.1904 58.6708C53.9416 53.2915 50.7764 48.0497 47.5859 42.7651L28.7862 54.8143V54.8143ZM59.877 25.0384C59.0379 26.2917 58.1971 27.544 57.3591 28.798C54.4812 33.1043 51.6036 37.4106 48.7285 41.719C48.5684 41.9589 48.3608 42.1491 48.5864 42.519C51.3645 47.0818 54.1208 51.6579 56.884 56.23C57.32 56.9522 57.7608 57.6715 58.3247 58.3644C58.8833 47.2675 59.4417 36.1704 60 25.0735L59.877 25.0384V25.0384ZM21.9521 39.2651C22.0821 39.3874 22.4065 39.4588 22.5576 39.3847C25.2224 38.0821 27.9041 36.8084 30.5107 35.3986C31.3608 34.9391 32.0145 34.1153 32.7468 33.4473C35.1717 31.2353 37.5929 29.0189 40.013 26.8022C40.1609 26.666 40.3363 26.5344 40.4247 26.3627C41.2939 24.673 42.1482 22.9747 43.0326 21.2274C41.978 20.8331 40.9781 20.4473 39.9658 20.0964C39.8286 20.0489 39.6123 20.1433 39.4636 20.2257C37.1205 21.5276 34.7333 22.7603 32.4647 24.1801C31.3296 24.8905 30.405 25.9373 29.3999 26.8491C27.7801 28.3195 26.1623 29.7935 24.566 31.2895C24.1425 31.6865 23.7564 32.1402 23.4265 32.6179C22.3348 34.199 21.2756 35.8029 20.168 37.4523C20.787 38.0889 21.3498 38.6977 21.9521 39.2651V39.2651ZM31.6915 37.1035C30.3658 42.6734 29.0482 48.212 27.6865 53.9326C34.0714 49.8407 40.3089 45.8433 46.5052 41.8727C41.5742 40.2854 36.6592 38.7029 31.6915 37.1035ZM58.2495 25.0921C52.8548 25.9887 47.589 26.8635 42.2553 27.7498C44.072 32.145 45.8523 36.452 47.6832 40.8813C51.2255 35.5871 54.6978 30.3991 58.2495 25.0921V25.0921ZM31.914 35.9642C36.7718 37.5326 41.533 39.07 46.4325 40.6521C44.613 36.2434 42.8559 31.9888 41.0624 27.6443C38.0073 30.4222 34.9981 33.1591 31.914 35.9642ZM22.1528 42.5131C20.43 46.6092 18.7658 50.566 17.0714 54.5941C20.3278 54.4983 23.4843 54.4055 26.7494 54.3097C25.2165 50.376 23.7138 46.5195 22.1528 42.5131V42.5131ZM26.8637 51.5084L26.9836 51.4822C28.1457 46.6767 29.3244 41.9044 30.5107 36.9111C27.8643 38.2792 25.3399 39.5839 22.7465 40.9248C24.07 44.3462 25.4813 47.9556 26.8637 51.5084V51.5084ZM56.2969 24.3128C54.7515 23.9057 53.2062 23.4972 51.6601 23.0929C49.4379 22.5117 47.214 21.9378 44.9932 21.3515C44.7156 21.2781 44.5149 21.2302 44.3517 21.5628C43.5667 23.1622 42.7574 24.7495 41.96 26.343C41.9354 26.3923 41.9406 26.4561 41.9215 26.5799C46.734 25.8546 51.5142 25.1339 56.2938 24.4134L56.2969 24.3128ZM47.3315 20.6748L59.9269 24.1404C59.2046 22.0933 58.5347 20.195 57.8457 18.2427L47.3498 20.5573L47.3315 20.6748V20.6748ZM27.9315 55.7371C26.3716 55.5582 24.7701 55.7226 23.188 55.7498C21.8884 55.7716 20.5887 55.8209 19.2891 55.8612C19.1553 55.8653 19.0219 55.8922 18.8885 56.0356C29.6332 57.0235 40.3775 58.0114 51.1219 59L51.1437 58.8573C47.6995 58.3895 44.255 57.9218 40.8108 57.4544C36.5188 56.8715 32.2342 56.2304 27.9315 55.7371V55.7371ZM17.2838 50.9069C18.6684 47.7115 20.047 44.5141 21.4371 41.3212C21.5761 41.0009 21.5654 40.7834 21.2933 40.5256C20.7118 39.9751 20.1715 39.3819 19.5359 38.7242C18.6767 42.9433 17.8387 47.058 17 51.1723L17.0939 51.216C17.158 51.1137 17.2364 51.0168 17.2838 50.9069V50.9069ZM44.5728 19.8314C46.9076 19.2323 49.2764 18.7638 51.6314 18.2413C51.7839 18.2072 51.9329 18.1572 52.0829 18.1144L52.0597 18C48.7427 18.4436 45.426 18.8876 41.942 19.354C42.8919 19.7666 43.6239 20.0747 44.5728 19.8314Z" fill="#D6D269"/>
</svg>
